<svg id="Layer_1" data-name="Layer 1" xmlns="http://www.w3.org/2000/svg" viewBox="0 0 43.72 43.58"><defs><style>.cls-1{fill:none;stroke:#fcfdf2;stroke-miterlimit:10;}</style></defs><path class="cls-1" d="M4.08,11.84H5.76l.12,1.74A12.63,12.63,0,0,0,7.48,12c2.89-4.25,2.33-3.85,7.2-3.72a6.25,6.25,0,0,0,5.12-2C21,5,22.25,4,23.56,2.77l2.49,2.74c-2.49,2-4.93,3.9-7.34,5.86a1.51,1.51,0,0,0-.5,1c0,2.51-.09,5,0,7.55a7.3,7.3,0,0,0,.82,2.6A9.78,9.78,0,0,1,20,27.26c-.09,1.63,0,3.26,0,5H16.58c-.16-3.6.59-7.35-1.92-10.61V32.28H11.24V12.93a4.26,4.26,0,0,0-.6.71,6,6,0,0,1-3.29,2.95,2.18,2.18,0,0,0-1.55,2.7,5,5,0,0,1,0,1c2,.54,2.33,1.84,1.91,3.68a2.92,2.92,0,0,0,.67,1.93,4.74,4.74,0,0,1,.93,3.43,3.89,3.89,0,0,1-.42,1.42C8,32.38,4.24,32.93,2.14,31.76a3.51,3.51,0,0,1-1-5.07,4.6,4.6,0,0,0,.9-4,1.77,1.77,0,0,1,1.24-2.09c.71-.28.79-.71.78-1.35C4.07,16.83,4.08,14.37,4.08,11.84ZM5.16,22.19l-.55,0c-.28.46-.86,1-.76,1.38s.79.86,1.22,1.27c.39-.42,1.09-.84,1.09-1.26S5.52,22.66,5.16,22.19Z"/><path class="cls-1" d="M43,34.22c0,.34,0,.54,0,.75,0,.83,0,1.67,0,2.73-1.55,0-3,0-4.53,0-1.25,0-2.82.37-3.66-.24s-1-2.2-1.35-3.39-.48-2.26-.8-3.83c-2,4.29-3.37,8.55-5.22,12.7l-3.12-1.21c.1-.33.15-.61.25-.86,1.3-3.31,2.62-6.61,3.88-9.94a6.48,6.48,0,0,0,.41-2.18c.06-2.3,0-4.6,0-7H22V18.36c.41,0,.82-.07,1.23-.07,3.94,0,7.89-.07,11.83,0a5,5,0,0,1,2.71,1c1.81,1.42,3.46,3,5.27,4.64l-2.32,2.6L36,22.41c0,1.17,0,2.06,0,2.94,0,2.67-.25,5.36.92,7.92.31.66.55,1,1.34,1C39.77,34.17,41.33,34.22,43,34.22Z"/><path class="cls-1" d="M14.67,6.35a2.93,2.93,0,0,1-3-2.87,3.08,3.08,0,0,1,3-3,3,3,0,0,1,2.94,3A2.88,2.88,0,0,1,14.67,6.35Z"/><path class="cls-1" d="M30.56,16.37a2.85,2.85,0,0,1-2.84-2.88,3,3,0,0,1,3-2.93,2.87,2.87,0,0,1,2.86,3A2.79,2.79,0,0,1,30.56,16.37Z"/><path class="cls-1" d="M18.79,37.18a2.79,2.79,0,0,1,2.94,2.87,2.89,2.89,0,0,1-2.9,3,3.05,3.05,0,0,1-2.92-2.87A2.87,2.87,0,0,1,18.79,37.18Z"/></svg>