<svg id="Layer_1" data-name="Layer 1" xmlns="http://www.w3.org/2000/svg" viewBox="0 0 406.34 87.65"><defs><style>.cls-1{fill:#fdfff2;}.cls-2{fill:#ffbf86;}</style></defs><path class="cls-1" d="M121.25,66.37V21.28h35.69c9.92,0,16.42,3,16.42,11.47,0,5.08-2.44,7.92-6.18,9.72,5.54,1.55,9.4,4.83,9.4,11.4,0,7.41-4.63,12.5-16.23,12.5ZM129.56,29V39.32h26.67c6.25,0,9.34-1.1,9.34-5.09,0-3.8-2.64-5.22-8.63-5.22Zm0,18V58.57h30.79c6.06,0,8.44-2,8.44-5.86,0-4.31-3.16-5.67-9.21-5.67Z"/><path class="cls-1" d="M237.07,21.28h8.3V48.33c0,13.34-9,19-27.05,19s-27-5.66-27-19v-27h8.31V48.33c0,9,7.6,11.21,18.74,11.21s18.75-2.19,18.75-11.21Z"/><path class="cls-1" d="M306.82,21.28h8.31V66.37h-8.31L269.46,31.78l.2,6.76V66.37h-8.31V21.28h8.31L307,55.93l-.13-7Z"/><path class="cls-1" d="M329.82,63l2.25-7.4a85.09,85.09,0,0,0,26.09,4.05c4.25,0,16.75-.51,16.75-6.5,0-4.06-5.67-4.38-16.62-5-13-.71-26.86-1.48-26.86-13.53s14-14.3,25-14.3A114.16,114.16,0,0,1,379.87,23l-1.74,7.6A105.08,105.08,0,0,0,355.07,28c-3.22,0-15.2.32-15.2,6.12,0,5.22,9.21,5.61,18.8,6,12.69.52,24.67,1.74,24.67,12.56,0,12.24-15.33,14.62-26.66,14.62A85.05,85.05,0,0,1,329.82,63Z"/><path class="cls-1" d="M398,21.28h8.31V66.37H398Z"/><path class="cls-2" d="M53.45,39.24a3,3,0,1,0,3,3A3,3,0,0,0,53.45,39.24Z"/><path class="cls-2" d="M43.82,0A43.87,43.87,0,0,0,0,43.82V73.5H5.91V43.82A37.92,37.92,0,1,1,52.72,80.69a36.13,36.13,0,0,0,14.33-35.5l7-4.12L63.42,34.59a36.19,36.19,0,0,0-25-18.66h0l-.56,2.91-.57,2.89.1,0A9.16,9.16,0,0,1,42.28,37L9.13,73.5H31.4a22.07,22.07,0,0,0,22.05-22H47.54A16.16,16.16,0,0,1,31.4,67.59H22.46L46.62,41a15,15,0,0,0,4-10.23,14.83,14.83,0,0,0-.29-2.92A30.29,30.29,0,0,1,31.4,81.74H0v5.91H43.82A43.83,43.83,0,1,0,43.82,0Z"/></svg>