<?xml version="1.0" encoding="UTF-8"?>
<svg id="Layer_1" data-name="Layer 1" xmlns="http://www.w3.org/2000/svg" viewBox="0 0 43.72 43.58">
  <defs>
    <style>
      .cls-1 {
        fill: none;
        stroke: #044524;
        stroke-miterlimit: 10;
      }
    </style>
  </defs>
  <path class="cls-1" d="M6.12,12.95h1.5l.11,1.55c.52-.43,.99-.9,1.43-1.41,2.58-3.79,2.08-3.43,6.42-3.31,1.71,.14,3.4-.52,4.56-1.78,1.07-1.14,2.18-2.03,3.35-3.13l2.22,2.44c-2.22,1.78-4.39,3.48-6.54,5.22-.26,.23-.42,.55-.45,.89,0,2.24-.08,4.46,0,6.73,.1,.81,.34,1.6,.73,2.32,.64,1.31,.93,2.77,.86,4.22-.08,1.45,0,2.9,0,4.46h-3.05c-.14-3.21,.53-6.55-1.71-9.45v9.47h-3.05V13.92c-.2,.19-.38,.4-.53,.63-.61,1.22-1.66,2.16-2.93,2.63-1.04,.27-1.66,1.33-1.39,2.37,0,.01,0,.02,.01,.04,.03,.3,.03,.59,0,.89,1.78,.48,2.08,1.64,1.7,3.28-.01,.63,.2,1.24,.6,1.72,.66,.87,.96,1.97,.83,3.06-.04,.44-.17,.87-.37,1.27-.79,1.45-4.14,1.94-6.01,.9-1.47-.9-1.94-2.83-1.04-4.3,.05-.07,.09-.15,.15-.22,.81-1,1.11-2.32,.8-3.56-.18-.82,.3-1.63,1.1-1.86,.63-.25,.7-.63,.7-1.2,0-2.16,.02-4.35,.02-6.6Zm.96,9.22h-.49c-.25,.41-.77,.89-.68,1.23s.7,.77,1.09,1.13c.35-.37,.97-.75,.97-1.12s-.57-.82-.89-1.24Z"/>
  <path class="cls-1" d="M40.79,32.89v3.1h-4.04c-1.11,0-2.51,.33-3.26-.21s-.89-1.96-1.2-3.02-.43-2.01-.71-3.41c-1.78,3.82-3,7.62-4.65,11.32l-2.78-1.08c.09-.29,.13-.54,.22-.77,1.16-2.95,2.33-5.89,3.46-8.86,.23-.62,.36-1.28,.37-1.94,.05-2.05,0-4.1,0-6.24h-6.11v-3.02c.37,0,.73-.06,1.1-.06,3.51,0,7.03-.06,10.54,0,.88,.05,1.71,.36,2.41,.89,1.61,1.27,3.08,2.67,4.7,4.13l-2.07,2.32-4.21-3.67v2.62c0,2.38-.22,4.78,.82,7.06,.28,.59,.49,.89,1.19,.89,1.35-.09,2.74-.04,4.22-.04Z"/>
  <path class="cls-1" d="M15.55,8.05c-1.44,.03-2.64-1.11-2.67-2.55,0,0,0,0,0-.01,.04-1.46,1.21-2.64,2.67-2.67,1.46,.03,2.62,1.22,2.62,2.67,0,1.42-1.16,2.56-2.57,2.56-.02,0-.03,0-.05,0Z"/>
  <path class="cls-1" d="M29.71,16.98c-1.4,0-2.54-1.15-2.53-2.55,0,0,0-.01,0-.02,.03-1.45,1.22-2.61,2.67-2.61,1.41,0,2.55,1.15,2.55,2.56,0,.04,0,.07,0,.11,.01,1.37-1.09,2.5-2.46,2.51-.08,0-.15,0-.23,0Z"/>
  <path class="cls-1" d="M19.22,35.53c1.37-.07,2.54,.98,2.62,2.35,0,.07,0,.14,0,.21,.05,1.42-1.05,2.62-2.48,2.67-.04,0-.07,0-.11,0-1.4-.06-2.52-1.16-2.6-2.56-.06-1.41,1.03-2.61,2.44-2.67,.04,0,.08,0,.13,0Z"/>
</svg>