<?xml version="1.0" encoding="UTF-8"?>
<svg id="Layer_1" data-name="Layer 1" xmlns="http://www.w3.org/2000/svg" viewBox="0 0 43.72 43.58">
  <defs>
    <style>
      .cls-1 {
        fill: #044524;
      }
    </style>
  </defs>
  <path class="cls-1" d="M43.12,20.65c-.09,0-.07-.11-.08-.17-.11-1.2-.41-2.37-.88-3.47-1.02-2.4-2.64-4.5-4.69-6.11-.19-.11-.27-.35-.18-.55,.35-1.09,.04-2.29-.79-3.08-.79-.84-1.99-1.15-3.09-.8-.21,.09-.46,.01-.58-.19-1.04-1.33-2.29-2.49-3.69-3.43C25.76,.45,21.4-.12,17.51,1.35c-2.62,1.01-4.91,2.72-6.62,4.95-.11,.19-.34,.26-.54,.18-1.09-.36-2.29-.06-3.09,.77-.84,.8-1.16,2.02-.81,3.13,.08,.19,.02,.41-.16,.51-.98,.78-1.87,1.67-2.64,2.65C.65,17.39-.26,21.64,1.46,26.3c1.01,2.58,2.71,4.83,4.91,6.5,.16,.13,.26,.21,.18,.47-.52,1.65,.39,3.42,2.05,3.94,.62,.19,1.28,.19,1.89,0,.16-.06,.33,0,.42,.14,.29,.35,.58,.7,.9,1,1.96,2.18,4.53,3.71,7.38,4.4,.48,.06,.96,.15,1.43,.28h.17c.16-.07,.34-.07,.5,0h1.16c.16-.09,.33,0,.5,0,1.56,0,3.09-.39,4.46-1.12,2.06-1,3.87-2.45,5.3-4.24,.16-.26,.48-.38,.77-.28,.52,.14,1.08,.14,1.6,0,1.72-.47,2.73-2.25,2.26-3.97,0,0,0-.02,0-.03-.07-.2,0-.42,.17-.54,.74-.61,1.43-1.28,2.07-2,1.09-1.2,1.98-2.57,2.63-4.06,.52-1.16,.83-2.4,.92-3.67v-1.81c-.07-.16-.07-.33,0-.49v-.17Zm-8.83-13c1.04-.08,1.94,.7,2.01,1.74,.08,1.04-.7,1.94-1.74,2.01-.09,0-.18,0-.27,0-1.04-.08-1.81-.98-1.74-2.01,.07-.93,.81-1.67,1.74-1.74Zm-22.41-.57c1.78-2.35,4.28-4.06,7.11-4.88,.92-.24,1.85-.37,2.8-.39,3.27,.05,6.39,1.39,8.68,3.73,.49,.47,.94,.97,1.36,1.5,.07,.1,.25,.16,.11,.34-.09,.15-.28,.19-.43,.11-1.55-.6-3.16-1.05-4.8-1.33-2.35-.4-4.74-.5-7.11-.31-2.53,.21-5.01,.78-7.38,1.69-.13,.08-.31,.04-.4-.08-.14-.2-.02-.28,.06-.38Zm-2.43,.53c1.04-.02,1.89,.81,1.91,1.85s-.81,1.89-1.85,1.91c-1.04,.02-1.89-.81-1.91-1.85,0-.01,0-.03,0-.04,0-1.03,.82-1.86,1.85-1.87h0Zm-2,24.25c-.14,.12-.21,0-.31,0-2.34-1.75-4.06-4.2-4.89-7-.92-3.34-.25-6.92,1.8-9.71,.82-1.17,1.79-2.21,2.9-3.11l.28-.22c.12,.18,.4,.18,.27,.52-.6,1.54-1.03,3.14-1.31,4.77-.4,2.34-.5,4.73-.31,7.1,.23,2.49,.81,4.93,1.72,7.25,.07,.14,.02,.32-.12,.4h-.03Zm2.15,4.24c-1.04,0-1.88-.83-1.89-1.87,0-1.04,.83-1.88,1.87-1.89,1.03,0,1.88,.83,1.89,1.86,.03,1.02-.78,1.87-1.8,1.9-.02,0-.05,0-.07,0Zm22.23,.53c-1.94,2.56-4.74,4.33-7.88,5-.66,.12-1.33,.19-2,.19-2.96-.04-5.8-1.15-8-3.13-.73-.6-1.4-1.27-2-2-.09-.11-.24-.2-.07-.38s.2-.2,.41-.12c2.11,.8,4.32,1.32,6.57,1.55,2.43,.26,4.89,.19,7.31-.2,1.8-.27,3.56-.74,5.26-1.39,.22-.08,.28,0,.4,.14s.04,.25-.05,.34h.05Zm-.69-2c0,.27-.07,.35-.3,.44-3.49,1.25-7.21,1.75-10.91,1.47-2.37-.17-4.7-.66-6.94-1.46-.29-.1-.36-.23-.33-.53,.2-1.69-1.01-3.23-2.71-3.43-.24-.03-.49-.03-.73,0-.26,.07-.53-.08-.61-.34,0-.02-.01-.04-.01-.06-2.01-5.74-2.01-11.99,0-17.73,.12-.35,.28-.42,.62-.39,1.69,.17,3.21-1.06,3.38-2.75,.02-.21,.02-.42,0-.63-.08-.29,.1-.59,.39-.67,0,0,.02,0,.03,0,3.47-1.23,7.17-1.72,10.84-1.44,2.39,.16,4.75,.67,7,1.5,.28,.09,.35,.21,.31,.49-.23,1.7,.96,3.27,2.67,3.5,.27,.04,.55,.04,.82,0,.32,0,.39,.12,.48,.36,1.01,2.84,1.53,5.83,1.52,8.84,.02,3.07-.51,6.12-1.57,9-.09,.26-.17,.38-.48,.34-1.7-.24-3.27,.94-3.52,2.64-.04,.28-.04,.57,0,.85h.05Zm3.09,1.49c-1.04,0-1.88-.85-1.87-1.89s.85-1.88,1.89-1.87c1.03,0,1.87,.85,1.87,1.88,.01,1.02-.81,1.86-1.83,1.87-.04,0-.07,0-.11,0h.05Zm3.92-5.64c-.48,.48-1,.92-1.55,1.32-.1,.07-.17,.24-.34,.09-.14-.1-.18-.29-.09-.43,.5-1.27,.9-2.57,1.18-3.9,.53-2.63,.7-5.32,.48-8-.2-2.48-.74-4.91-1.62-7.24-.08-.22,0-.28,.14-.4s.24,0,.34,0c2.55,1.95,4.33,4.74,5,7.88,0,.23,.08,.46,.11,.69,0,.44,.06,.88,.08,1.21-.04,3.31-1.4,6.47-3.78,8.77h.05Z"/>
  <path class="cls-1" d="M34.8,19.08c-1.53-7.15-8.56-11.7-15.7-10.17-1.9,.41-3.68,1.22-5.23,2.39-.35,.18-.5,.61-.32,.97,0,.01,.01,.02,.02,.03,.45,.37,.63,.37,1.13,0,4.07-3.1,9.67-3.24,13.9-.37,1.49,.99,2.73,2.32,3.59,3.89l.11,.27c1.08,2.12,1.53,4.51,1.3,6.88-.24,2.54-1.29,4.94-3,6.84-.07,.08-.12,.19-.31,.14,0-1,0-2.05-.1-3.08-.26-2.01-1.98-3.51-4-3.49h-1.66c-.29,0-.36-.08-.34-.35v-1.33c-.02-.21,.08-.42,.25-.55,.89-.72,1.4-1.79,1.41-2.93v-3.52c-.02-1.37-.93-2.56-2.25-2.94-.89-.2-1.81-.24-2.72-.12-1.72,.06-3.06,1.5-3,3.22,0,0,0,.02,0,.02v3.19c-.07,.95,.27,1.89,.95,2.57,.62,.54,.91,1.35,.77,2.16-.01,.08-.01,.17,0,.25,.05,.28-.1,.34-.35,.33h-1.87c-1.77,.05-3.28,1.28-3.69,3-.14,1.03-.17,2.07-.11,3.1v.79c-.09,0-.12,0-.14-.06-2.66-2.64-3.91-6.39-3.36-10.1,.27-2.08,1.11-4.04,2.41-5.68,.32-.41,.29-.58-.06-1-.36-.19-.81-.05-1,.32,0,0,0,0,0,0-2.4,3.04-3.31,7-2.48,10.79,1.51,7.14,8.52,11.7,15.66,10.19,7.14-1.51,11.7-8.52,10.19-15.65Zm-15.67-3.69v-.82c.12-1.03,1.03-1.78,2.06-1.71h.75c.43-.03,.85,0,1.27,.1,.8,.23,1.37,.95,1.39,1.79,0,.07,0,.14,0,.21,0,.9-.09,1-.87,.48-.44-.29-.99-.34-1.47-.14-.9,.27-1.82,.43-2.76,.47-.3,.01-.39-.09-.37-.38Zm0,2.82c0-.36-.12-.81,.05-1.05s.66-.13,1-.17c.82-.08,1.63-.23,2.42-.45,.2-.07,.41-.05,.59,.06,.32,.2,.68,.32,1.05,.37,.34,0,.44,.19,.39,.5,0,.11,0,.22,0,.33,.13,1.3-.66,2.52-1.89,2.94-1.44,.48-2.99-.3-3.46-1.74-.08-.26-.13-.52-.14-.79h-.01Zm2.71,5.16h-.24q-.75,0-.75-.73c0-.73,0-.64,.63-.57,.41,.06,.83,.03,1.23-.06,.22,0,.25,0,.26,.21q.03,1.15-1.12,1.15h0Zm7.1,7.84c.02,.12-.03,.25-.13,.32-.62,.45-1.29,.82-2,1.12v-3.53c0-.45-.26-.73-.62-.73-.36,.01-.64,.32-.62,.67,0,.02,0,.04,0,.06v3.19c0,.89,0,.9-.84,1.1-2.04,.5-4.18,.47-6.2-.11-.37-.1-.51-.26-.42-.62v-3.48c0-.51-.23-.81-.62-.81s-.62,.3-.62,.82v3.44c-.71-.31-1.38-.69-2-1.14-.13-.09-.11-.22-.11-.34v-3.86c-.02-1.46,1.16-2.66,2.62-2.68,.03,0,.07,0,.1,0h9c1.3,.1,2.33,1.15,2.41,2.45,.08,1.39,.05,2.76,.06,4.13h0Z"/>
</svg>