<svg version="1.1" id="Layer_1" xmlns="http://www.w3.org/2000/svg"
	xmlns:xlink="http://www.w3.org/1999/xlink" x="0px" y="0px"
	width="100%" viewBox="0 0 512 512" enable-background="new 0 0 512 512" xml:space="preserve">
<path fill="#85331E" opacity="1.000000" stroke="none" 
	d="
M372.531464,1.000000 
	C374.531891,4.351994 378.264862,4.916727 380.793793,7.060106 
	C388.929932,13.955876 396.870392,21.106798 403.028687,29.768953 
	C410.539307,40.333351 409.788849,55.699932 399.806427,65.684669 
	C341.159210,124.345345 282.502167,182.996231 223.848572,241.650543 
	C219.608551,245.890625 215.446381,250.212769 211.095688,254.336044 
	C209.090729,256.236206 208.739807,257.736725 211.029236,259.562988 
	C212.064331,260.388702 212.928284,261.428864 213.870514,262.371094 
	C275.233246,323.734100 336.500702,385.192993 398.043793,446.374603 
	C409.589783,457.852814 411.825073,477.794189 398.234436,489.391846 
	C392.929565,493.918884 388.054718,499.014374 383.416443,504.235138 
	C380.359222,507.676270 376.170776,509.348511 372.928528,512.643799 
	C366.312347,513.000000 359.624725,513.000000 352.468536,513.000000 
	C351.998718,512.680603 352.117554,512.150696 351.979095,512.071655 
	C335.942200,502.918121 324.881989,488.255310 312.122589,475.573639 
	C246.791245,410.640442 181.766586,345.398560 116.666451,280.232880 
	C107.294052,270.851074 103.321938,259.960785 107.902946,246.822769 
	C109.194374,243.119019 111.377037,240.116791 114.098450,237.395691 
	C190.427155,161.076385 266.768707,84.769875 342.996429,8.349866 
	C345.773285,5.566010 349.586914,4.581107 352.071655,1.356069 
	C358.687653,1.000000 365.375275,1.000000 372.531464,1.000000 
z"/>
</svg>