<svg version="1.1" id="Layer_1" xmlns="http://www.w3.org/2000/svg"
	xmlns:xlink="http://www.w3.org/1999/xlink" x="0px" y="0px"
	width="100%" viewBox="0 0 512 512" enable-background="new 0 0 512 512" xml:space="preserve">
<path fill="#85331E" opacity="1.000000" stroke="none" 
	d="
M141.468536,513.000000 
	C140.630417,512.375671 140.415680,511.465729 139.868454,511.168976 
	C128.065338,504.768555 119.222939,494.972504 111.350319,484.584351 
	C102.520981,472.933777 104.522293,457.980652 114.880669,447.621613 
	C176.829849,385.668701 238.777573,323.714355 300.757629,261.792358 
	C302.163422,260.387878 303.944885,259.359528 306.009552,257.812225 
	C303.734406,255.402573 302.331879,253.840790 300.849854,252.358490 
	C239.375946,190.872513 178.012482,129.275253 116.312912,68.016548 
	C104.356689,56.145763 102.082726,36.140095 116.133644,24.267031 
	C124.703583,17.025402 132.821396,9.248715 141.071136,1.356176 
	C147.687637,1.000000 154.375290,1.000000 161.531464,0.999999 
	C164.208878,2.716800 166.554794,4.285361 168.601456,6.177627 
	C175.301453,12.372232 182.048447,18.528563 188.501541,24.975704 
	C257.901062,94.311150 327.259155,163.688049 396.590210,233.091949 
	C403.300659,239.809479 408.309753,247.497025 407.969971,257.518677 
	C407.726898,264.686646 405.452454,271.069000 400.241211,276.278229 
	C323.554810,352.934692 246.898636,429.621399 170.167145,506.232697 
	C167.770905,508.625122 164.644073,510.285828 161.928925,512.643799 
	C155.312363,513.000000 148.624710,513.000000 141.468536,513.000000 
z"/>
</svg>