<?xml version="1.0" encoding="UTF-8"?>
<svg id="Layer_1" data-name="Layer 1" xmlns="http://www.w3.org/2000/svg" viewBox="0 0 43.72 43.58">
  <defs>
    <style>
      .cls-1 {
        fill: #044524;
      }
    </style>
  </defs>
  <path class="cls-1" d="M42.07,25.98c-.14-.26-.43-.4-.72-.34-.71,.06-1.4,.23-2.07,.48-.75,.23-1.55,.21-2.29-.06,.46-.33,.88-.64,1.27-.93,2.24-1.85,3.62-4.54,3.81-7.43,.08-.83-.28-1.09-1.07-.79-1.35,.52-2.73,.96-4.12,1.33-2.21,.56-4.46,.99-6.72,1.3-1.51,.21-3.03,.37-4.55,.52-1.08,.1-2.17,.15-3.31,.24,.14-.15,.22-.24,.32-.33l5.15-5.11c.09-.09,.18-.19,.27-.29,.21-.22,.2-.56-.02-.76-.01-.01-.02-.02-.03-.03-.2-.22-.55-.23-.76-.02,0,0-.02,.02-.02,.02-.1,.08-.2,.17-.29,.27-2.07,2.03-4.12,4.08-6.16,6.13-.12,.14-.29,.23-.47,.24-1.05,0-2.11,.06-3.18,.07-3.08,.04-6.15,0-9.22-.17-1.8-.09-3.63-.18-5.44-.37-.34-.06-.69,.09-.88,.38v.55c.09,.15,.03,.31,.05,.46,.2,1.33,.55,2.63,1.05,3.87q.15,.39-.25,.35c-.36-.09-.72,.11-.85,.46v.47c.08,.13,.14,.28,.28,.35,.55,.2,1.14,.17,1.7,.38,1.18,.47,2.49,.48,3.67,.03,.97-.37,2.04-.37,3.01,0,1.14,.44,2.41,.44,3.56,0,.96-.37,2.02-.37,2.97,0,1.16,.44,2.44,.44,3.6,0,.96-.37,2.02-.37,2.97,0,1.14,.44,2.41,.44,3.56,0,.94-.37,1.99-.37,2.94,0,1.26,.47,2.65,.45,3.9-.05,.79-.3,1.65-.3,2.44,0,1.33,.52,2.81,.52,4.14,0,.29-.1,.58-.16,.88-.2,.24,0,.51,0,.68-.24,.25-.17,.34-.5,.2-.77Zm-24.73-.92c-.26,.21-.55,.4-.83,.6s-.43-.03-.64,0l-.03-.1c.29-.39,.55-.79,.85-1.18,.12-.23,.41-.32,.64-.2,.23,.12,.32,.41,.2,.64-.04,.08-.11,.15-.2,.2v.04Zm.28-1.96c-.67-.22-1.41,0-1.86,.54h0l-1.36,1.91c-.04,.06-.1,.15-.16,.17-.61,.24-1.25,.41-1.91,.51-.7,.06-1.4-.05-2.05-.33-1.01-.37-2.12-.37-3.13,0-.67,.28-1.39,.41-2.11,.39-.27,.02-.53-.13-.64-.38-.34-.67-.62-1.36-.85-2.08,.64,.03,1.24,.06,1.84,.1s1.21,.11,1.81,.13c1.02,.04,2.03,.06,3.04,.1,.09,0,.18,.03,.27,.06h2.9c.53,0,.67-.13,.74-.64h0c-.08-.44-.4-.55-.79-.55l-3.98-.1h0c-1.21-.07-2.42-.08-3.63-.19-.68-.06-1.36-.09-2.05-.11-.39,0-.64-.11-.67-.56,0-.27-.26-.59-.1-.79,.16-.2,.5,0,.75,0,1.58,.09,3.18,.22,4.73,.25,.06,.01,.13,.03,.19,.05,3.51,.1,6.99,.13,10.64,.08l-1.44,1.46c-.07,.04-.15,0-.22,0Zm17.95,2.31c-.26,.13-.54,.21-.83,.23-.54,.03-1.07,.14-1.58,.34-.94,.38-1.99,.38-2.93,0-1.18-.47-2.49-.47-3.67,0-.94,.38-1.99,.38-2.93,0-1.18-.46-2.48-.46-3.66,0-.64,.26-1.34,.34-2.02,.22,0-.15,.13-.19,.2-.26,.47-.38,.69-.98,.58-1.58-.04-.22,.06-.21,.2-.22,1.19-.05,2.4-.09,3.6-.16,1.55-.08,3.09-.21,4.64-.36,1.99-.2,3.97-.47,5.94-.82,.7-.13,1.39-.27,2.09-.41,.39-.08,.56-.31,.58-.77h0c-.3-.44-.46-.5-1.04-.37-1.12,.24-2.24,.44-3.37,.64-1.69,.27-3.4,.48-5.13,.64-2.05,.19-4.1,.32-6.15,.38h-.44c.5-.48,.88-.92,1.34-1.27,.25-.2,.64-.13,.96-.14,2.13-.08,4.26-.25,6.35-.5,4.17-.41,8.28-1.3,12.25-2.65l.25-.06c-.04,.39-.12,.78-.23,1.16-.04,.2-.18,.24-.33,.29-.84,.27-1.68,.55-2.54,.81-.41,.13-.64,.35-.6,.79,.12,.35,.51,.53,.85,.4,.03-.01,.06-.03,.09-.04l1.83-.56c-.31,.73-.74,1.41-1.27,2-.85,.96-1.89,1.73-3.06,2.27h0Z"/>
  <path class="cls-1" d="M35.57,28.85c-.08,.24-.2,.46-.47,.48-.79,.11-1.57,.29-2.33,.55-1.02,.23-2.09,.13-3.06-.27-.79-.32-1.67-.34-2.47-.03-1.37,.55-2.9,.55-4.27,0-.72-.27-1.52-.27-2.24,0-1.01,.42-2.13,.54-3.21,.33-.38-.08-.75-.22-1.12-.34-.72-.25-1.5-.25-2.21,0-1.01,.41-2.11,.53-3.18,.34-.25-.06-.5-.14-.75-.23-.47-.17-.96-.28-1.46-.3-.3,0-.57-.2-.64-.5,.06-.53,.27-.69,.81-.67,.6,.03,1.2,.16,1.76,.39,.83,.32,1.75,.32,2.59,0,1.28-.51,2.71-.51,4,0,.82,.32,1.73,.32,2.54,0,1.29-.52,2.74-.52,4.03,0,.82,.32,1.72,.32,2.54,0,1.28-.51,2.71-.51,4,0,.83,.32,1.75,.32,2.59,0,.56-.23,1.15-.36,1.75-.4,.53,0,.74,.14,.81,.67Z"/>
</svg>