<svg id="Capa_1" data-name="Capa 1" xmlns="http://www.w3.org/2000/svg" viewBox="0 0 132.77 132.77"><defs><style>.cls-1{fill:#f5f5ec;}</style></defs><path class="cls-1" d="M65.37,21.84h6.18c1.28.18,2.57.34,3.85.53a46,46,0,0,1,23.15,10.5,3.44,3.44,0,0,1,.35.3,1.41,1.41,0,0,1,.19,1.89,1.37,1.37,0,0,1-1.87.24,6.14,6.14,0,0,1-.65-.49,43.38,43.38,0,0,0-12.8-7.45c-1.64-.61-3.34-1.06-5.11-1.62,1.46,1.7,2.9,3.18,4.11,4.83A47.25,47.25,0,0,1,89.9,45.85,1.46,1.46,0,0,0,91,47c2.37.79,4.77,1.55,7.08,2.52a34.74,34.74,0,0,1,12.42,8.33,3.47,3.47,0,0,0,.42.34,38.09,38.09,0,0,0-1.45-5.08,43.64,43.64,0,0,0-7.74-13.15c-.73-.88-.71-1.68,0-2.23a1.43,1.43,0,0,1,2.07.39,46,46,0,0,1,10.48,22.21c.29,1.66.49,3.34.73,5v6.18c-.12.87-.25,1.73-.36,2.6a44,44,0,0,1-10.22,23.83c-11.31,13.24-25.71,18.78-43,16.47A44.64,44.64,0,0,1,39,104.44a9.33,9.33,0,0,1-1.16-1,1.26,1.26,0,0,1,0-1.81,1.24,1.24,0,0,1,1.72-.25,6.24,6.24,0,0,1,.72.55,43.11,43.11,0,0,0,13.13,7.59c1.56.56,3.17,1,4.75,1.5l.19-.3a6.34,6.34,0,0,1-.6-.41A30.2,30.2,0,0,1,52,102.88,51.26,51.26,0,0,1,47,90.94a1.41,1.41,0,0,0-1.11-1.11c-1.2-.32-2.38-.7-3.54-1.12-6.07-2.19-11.72-5.07-16.15-9.93a1.46,1.46,0,0,0-.36-.2c.2.73.35,1.34.52,2a44,44,0,0,0,8.78,16.34c.74.87.71,1.67,0,2.22s-1.47.34-2.13-.47c-9.42-11.43-12.95-24.47-10.29-39A45.06,45.06,0,0,1,40.14,31.45a44.53,44.53,0,0,1,20.21-8.89C62,22.28,63.69,22.08,65.37,21.84Zm-15.52,69a47.83,47.83,0,0,0,5.65,12.5,23.08,23.08,0,0,0,5.73,6.25c5.19,3.73,10.89,3.36,15.66-.94A33.37,33.37,0,0,0,85,96.57,67.87,67.87,0,0,0,89.9,75.09a84.35,84.35,0,0,0-1.82-25.44,1,1,0,0,0-.85-.88,80.69,80.69,0,0,0-14-2,84.68,84.68,0,0,0-23.54,2c-.45.1-.74.26-.83.77-.49,2.89-1.13,5.76-1.5,8.66A72.81,72.81,0,0,0,47,74.9c.42,4.14,1.21,8.24,1.87,12.36a1,1,0,0,0,.65.68c2.88.55,5.76,1.14,8.66,1.54A83.62,83.62,0,0,0,72.45,90c1.49,0,3-.22,4.72-.36-1.37-1-2.56-1.81-3.7-2.69a1.3,1.3,0,0,1-.35-1.91,1.33,1.33,0,0,1,1.93-.3q3.35,2.35,6.64,4.77A1.29,1.29,0,0,1,82,91.45c-.34.54-.73,1-1.1,1.56-1.16,1.62-2.31,3.26-3.49,4.87-.62.85-1.45,1-2.1.51a1.44,1.44,0,0,1-.13-2.1c.37-.55.77-1.09,1.15-1.63L78,92.35A88.54,88.54,0,0,1,49.85,90.87Zm3.27-53.3C54.8,37,56.27,36.5,57.77,36a1.38,1.38,0,0,1,1.85.83,1.36,1.36,0,0,1-1,1.76q-3.81,1.3-7.65,2.56a1.25,1.25,0,0,1-1.7-.8c-.92-2.59-1.8-5.19-2.59-7.82a1.8,1.8,0,0,1,.39-1.46,1.42,1.42,0,0,1,1.3-.24,2.1,2.1,0,0,1,1,1.11c.5,1.31.91,2.65,1.41,4.17a34.84,34.84,0,0,1,7.66-10.31C42.71,29.15,29.19,42.71,26,58.14c.05,0,.13,0,.16,0,.24-.24.48-.47.7-.71a29.48,29.48,0,0,1,6.64-5.18,56.26,56.26,0,0,1,16.71-6.35A82.7,82.7,0,0,1,66.9,43.94a85.93,85.93,0,0,1,16.72,1.31l3.33.62.22-.21C86,42.91,85,40.09,83.7,37.41a26.88,26.88,0,0,0-8.62-10.69,11.59,11.59,0,0,0-13.35.07C57.88,29.51,55.33,33.25,53.12,37.57ZM91,86.94a43,43,0,0,0,14.85-7.3,17.42,17.42,0,0,0,5.59-7c1.9-4.76.57-8.88-2.61-12.59a27.94,27.94,0,0,0-9.39-6.88c-2.68-1.28-5.48-2.31-8.23-3.46l-.19.24A88.38,88.38,0,0,1,91,86.94ZM46,49.85c-.23,0-.34,0-.45.08a48,48,0,0,0-11.16,4.93,23.56,23.56,0,0,0-7.62,7,11.38,11.38,0,0,0-2,7.91,13.27,13.27,0,0,0,3.38,7A27,27,0,0,0,37,83.41c2.83,1.38,5.8,2.49,8.71,3.73l.2-.25A88.42,88.42,0,0,1,46,49.85ZM78.47,111c16.74-3.71,29.49-17.8,32.42-32.42-.24.17-.39.45-.61.64-1.93,1.6-3.76,3.34-5.83,4.74A46.22,46.22,0,0,1,91,89.83a1.34,1.34,0,0,0-1.06,1c-.32,1.19-.7,2.38-1.11,3.54a42,42,0,0,1-8.09,14.37C80.07,109.49,79.34,110.13,78.47,111Z"/><path class="cls-1" d="M66.42,66.49a12.25,12.25,0,0,1,2.53-.6c3.37-.08,4.28,1.92,4.13,4.44-.24,3.72-3.82,5.55-7.14,3.74a3.2,3.2,0,0,1-1.83-2.65,69,69,0,0,1,0-7.88c.17-2.15,2.12-3.42,4.59-3.26a7.6,7.6,0,0,1,2.52.63A3.06,3.06,0,0,1,73,63.36c.1.68.1,1.3-.73,1.51a1.33,1.33,0,0,1-1.75-.93c-.34-1.1-.93-1.46-2.2-1.38a1.63,1.63,0,0,0-1.76,1.58C66.49,65,66.48,65.76,66.42,66.49Zm4.09,3.84c0-1.67-.52-2.41-1.92-2.46s-2,.71-2.12,2.13c-.08,1.59.64,2.5,2,2.55S70.47,71.79,70.51,70.33Z"/><path class="cls-1" d="M83.87,67.48c-.11,1.44-.12,2.89-.35,4.32a3.15,3.15,0,0,1-2.26,2.49,6.14,6.14,0,0,1-4.1,0,3.6,3.6,0,0,1-2.48-3.55c-.08-2.18-.07-4.36,0-6.53a3.78,3.78,0,0,1,3.49-3.86c2.29-.35,4.21.32,5,1.87a5,5,0,0,1,.53,1.88c.09,1.12,0,2.24,0,3.36Zm-2.68,0h0c0-1.11.07-2.24,0-3.35a1.67,1.67,0,0,0-1.84-1.61c-1.2,0-1.91.39-2,1.5q-.18,3.3,0,6.6a1.7,1.7,0,0,0,2,1.74,1.85,1.85,0,0,0,1.91-2C81.23,69.45,81.19,68.48,81.19,67.51Z"/><path class="cls-1" d="M60.59,67a3.66,3.66,0,0,1,1.8,4.35,3.82,3.82,0,0,1-3.48,3.2A6,6,0,0,1,55.2,74a3.3,3.3,0,0,1-1.87-2.81c0-.64.18-1.09.86-1.13s1.37-.15,1.64.73a2.19,2.19,0,0,0,3.29,1.27c1-.59.83-1.62.76-2.54a1.44,1.44,0,0,0-1.35-1.36c-.21,0-.42-.06-.63-.09a.91.91,0,0,1-.88-1,.93.93,0,0,1,.95-1c.72,0,1.3-.24,1.47-1.06s.3-1.67-.41-2.08a3.56,3.56,0,0,0-2.13-.18c-.31.06-.6.68-.75,1.1-.28.8-.77,1.09-1.77.89-.76-.15-.83-.71-.75-1.32a3.22,3.22,0,0,1,2.26-2.81,6.08,6.08,0,0,1,3.75-.11c2.46.71,3.22,4.25,1.33,6.15C60.87,66.75,60.75,66.84,60.59,67Z"/></svg>