<svg id="Capa_1" data-name="Capa 1" xmlns="http://www.w3.org/2000/svg" viewBox="0 0 123.94 123.94"><defs><style>.cls-1{fill:#f5f5ec;}</style></defs><path class="cls-1" d="M37.1,77.11c0,.62,0,1.23,0,1.83a1.3,1.3,0,1,1-2.6,0V48a1.31,1.31,0,0,1,1.3-1.43A1.29,1.29,0,0,1,37.1,48c0,.55,0,1.1,0,1.65,0,0,0,.07.06.17l.6,0q9.18,0,18.37,0a1.38,1.38,0,0,0,.87-.33c1.16-1,2.28-2.08,3.4-3.15a.94.94,0,0,0,.33-.58c0-1.89,0-3.79,0-5.69a.87.87,0,0,0-.06-.15H25.15v.71c0,1.25,0,2.5,0,3.75a1.29,1.29,0,0,1-2.58,0c0-2.82-.08-5.64,0-8.45a5.66,5.66,0,0,1,5.76-5.28c2.43,0,4.85,0,7.28,0H57.37a5.73,5.73,0,0,1,6,6v6.88c.2-.13.32-.2.44-.29A11.72,11.72,0,0,1,70.77,41c4.48,0,9,0,13.44,0a5.89,5.89,0,0,1,5.87,4.69,5.56,5.56,0,0,1,.08,1.29.69.69,0,0,0,.36.7c.88.59,1.71,1.25,2.58,1.84a1.88,1.88,0,0,0,.93.34c1.57,0,3.13,0,4.7,0a4.77,4.77,0,0,1,4.61,6.74,1.58,1.58,0,0,0,0,.21c2.43.77,3.85,2.38,3.73,5a4.62,4.62,0,0,1-3.67,4.34,14.63,14.63,0,0,1,.39,2.19,4.68,4.68,0,0,1-4.49,4.79c-1,0-2.06,0-3.14,0a12.34,12.34,0,0,1,.36,1.42A4.75,4.75,0,0,1,91.78,80c-1.53,0-3,0-4.58,0C81,80,74.76,80,68.54,80a11.36,11.36,0,0,1-4.13-.66c-.31-.11-.63-.19-1-.32V90.76a5.75,5.75,0,0,1-6,6H28.52a5.69,5.69,0,0,1-6-6V59.66c0-1,.63-1.67,1.53-1.52a1.22,1.22,0,0,1,1.05,1.09,6.43,6.43,0,0,1,0,.76c0,7.5,0,15,0,22.48,0,.52.12.7.68.7q17.09,0,34.16,0h.74c0-.23,0-.4,0-.57,0-1.27,0-2.54,0-3.81,0-.42-.14-.57-.53-.67a31.43,31.43,0,0,0-7.47-1c-5,0-10.09,0-15.14,0C37.47,77.07,37.32,77.09,37.1,77.11ZM64.36,59.36c-.16,0-.29,0-.42,0A1.29,1.29,0,0,1,62.75,58a1.27,1.27,0,0,1,1.18-1.3l.52-.07A5.38,5.38,0,0,0,67.84,55a7.46,7.46,0,0,0,1.89-3.84c.15-.76.5-1.2,1.09-1.29a4.79,4.79,0,0,1,.76,0H84.37a3.11,3.11,0,0,0,3.08-3.94,3.25,3.25,0,0,0-3.25-2.29H70.93a9.1,9.1,0,0,0-6.43,2.53c-2,1.89-4.07,3.78-6.09,5.69a2.19,2.19,0,0,1-1.63.63H37.14v22H38c4.7,0,9.39,0,14.09,0a46.65,46.65,0,0,1,5.54.44,54.48,54.48,0,0,1,8.77,2.32,3.23,3.23,0,0,0,1,.16c1.43,0,2.86,0,4.29,0,.14,0,.28,0,.49,0C65.94,72.9,63.36,67,64.36,59.36Zm18.59-7c-.06.51-.06.5.42.67a5.51,5.51,0,0,1,4,4.9,1.35,1.35,0,0,1-1.22,1.67c-.76.05-1.32-.51-1.4-1.41a3.37,3.37,0,0,0-.17-.85A3.26,3.26,0,0,0,81,55.47a2.88,2.88,0,0,0,.12,5.76c.41,0,.82.05,1.23.1a5.67,5.67,0,0,1,5,5.13,5.51,5.51,0,0,1-4,5.58.69.69,0,0,0-.58.81,1.26,1.26,0,0,1-1.28,1.43,1.24,1.24,0,0,1-1.3-1.45.65.65,0,0,0-.56-.77,5.53,5.53,0,0,1-4-5,1.36,1.36,0,0,1,1.21-1.58c.78-.06,1.3.45,1.4,1.39a3.06,3.06,0,0,0,2.48,2.76,3.32,3.32,0,0,0,3.66-1.6,3,3,0,0,0,.29-1,3.09,3.09,0,0,0-3.23-3.2,8.08,8.08,0,0,1-1.89-.29A5.45,5.45,0,0,1,76,56.8a5.56,5.56,0,0,1,3.83-3.73c.28-.1.61-.13.43-.6l-.39,0c-2.41,0-4.81,0-7.22,0-.41,0-.52.19-.62.52a9.33,9.33,0,0,1-4.4,5.49,1,1,0,0,0-.41.64A14.79,14.79,0,0,0,83.86,77.2,14.17,14.17,0,0,0,95.4,67.76c2-5.33,1-10.31-2.52-14.75a12.77,12.77,0,0,0-3.66-3.1C87.65,52.12,85.43,52.65,83,52.41ZM25.21,85.79a1.67,1.67,0,0,0-.06.24c0,1.7,0,3.41,0,5.11a3,3,0,0,0,3.21,3H57.53a3.11,3.11,0,0,0,3.23-3.26c0-1.29,0-2.58,0-3.87V85.79ZM60.66,37.26a3.15,3.15,0,0,0-3.1-4H28.36a3.1,3.1,0,0,0-3.22,3.22c0,.76,0,.76.77.76H60.66ZM99,63.58c1.15,0,2.28.05,3.41,0a2.12,2.12,0,0,0-.18-4.23c-.66,0-1.32,0-2,0H98.8ZM95.83,52.44c.14.24.23.38.31.53.52,1,1.06,2,1.54,3s.38.88,1.32.79a2.16,2.16,0,0,0,2.16-2.15,2.22,2.22,0,0,0-2.29-2.12C97.9,52.42,96.93,52.44,95.83,52.44Zm2.88,13.8-1.49,4.24a16.31,16.31,0,0,0,2,0A2.12,2.12,0,0,0,101.06,69,2.14,2.14,0,0,0,98.71,66.24ZM93.88,75c-.54.46-1,.87-1.48,1.26s-1,.72-1.53,1.15C92.91,77.49,94,76.6,93.88,75Z"/><path class="cls-1" d="M25.14,51.91c0,.51,0,1,0,1.52a1.3,1.3,0,0,1-2.6,0c0-1,0-2,0-3.05a1.3,1.3,0,1,1,2.6,0C25.15,50.89,25.14,51.4,25.14,51.91Z"/><path class="cls-1" d="M43,92.91H40.38A3,3,0,1,1,40.27,87c1.8,0,3.6,0,5.4,0a2.94,2.94,0,0,1,2.89,3,3,3,0,0,1-3,3C44.68,92.92,43.82,92.91,43,92.91Zm0-3.3c-.84,0-1.68,0-2.52,0-.16,0-.32.19-.48.29.16.12.32.35.48.35,1.64,0,3.28,0,4.92,0,.17,0,.33-.23.49-.35-.16-.1-.32-.28-.49-.28C44.61,89.6,43.81,89.61,43,89.61Z"/><path class="cls-1" d="M43,36.57H40.19a1.34,1.34,0,0,1-1.43-1.3A1.28,1.28,0,0,1,40.17,34c1.87,0,3.75,0,5.62,0a1.28,1.28,0,0,1,1.35,1.31,1.33,1.33,0,0,1-1.38,1.29Z"/></svg>