<svg id="Capa_1" data-name="Capa 1" xmlns="http://www.w3.org/2000/svg" viewBox="0 0 123.94 123.94"><defs><style>.cls-1{fill:#f5f5ec;}</style></defs><path class="cls-1" d="M61.93,80.2c-6-7-11.55-14.21-15-22.76-2.25-5.53-2.68-11,.39-16.45A16.83,16.83,0,0,1,78.19,53.76a42.44,42.44,0,0,1-2.75,7.09A90.08,90.08,0,0,1,61.93,80.2Zm0-8.6c1.33-1.83,2.59-3.44,3.72-5.14C68.83,61.74,71.85,57,73,51.32A11.25,11.25,0,0,0,55.74,39.9,11,11,0,0,0,51,51.36C52.72,59.07,57.44,65.18,62,71.6Z"/><path class="cls-1" d="M48.17,71.27l1.6,2.37a36.51,36.51,0,0,0-3.16,2.28c-2.15,1.93-2.07,4.15.16,6a16.39,16.39,0,0,0,7.36,3.14,35.27,35.27,0,0,0,18.35-.74,16.34,16.34,0,0,0,4.73-2.48c2.3-1.74,2.26-4.1.06-6a37.25,37.25,0,0,0-3.34-2.26l1.55-2.37c3.25,1.33,6.34,2.84,8.17,6a5.82,5.82,0,0,1-.4,6.64,12.73,12.73,0,0,1-5.73,4.45,38.44,38.44,0,0,1-31.13-.09A16.79,16.79,0,0,1,41,84.11c-2.15-2.35-2-5.44,0-8A17.22,17.22,0,0,1,48.17,71.27Z"/><path class="cls-1" d="M67.57,49.26A5.59,5.59,0,1,1,62,43.66,5.63,5.63,0,0,1,67.57,49.26Z"/></svg>