<svg id="Capa_1" data-name="Capa 1" xmlns="http://www.w3.org/2000/svg" viewBox="0 0 123.94 123.94"><defs><style>.cls-1{fill:#f5f5ec;}</style></defs><path class="cls-1" d="M58,75.81c.4-.85.78-1.7,1.19-2.53A4.3,4.3,0,0,1,64.58,71a4.13,4.13,0,0,1,2.56,5.08c-1.23,4.26-2.54,8.5-4,12.69a8.11,8.11,0,0,1-5.43,5c-.43.14-.84.34-1.29.52.12.17.15.27.2.28,4.3,1,4.47,4.62,3.77,7.73a4.21,4.21,0,0,1-4.14,3.1c-6.84,0-13.69,0-20.53,0A4.41,4.41,0,0,1,31.31,101a12.14,12.14,0,0,1,.11-2.7c.39-2,1.35-2.79,4.42-3.86a11.32,11.32,0,0,0-1.18-1.27,8.25,8.25,0,0,1-3.34-6.83c0-4.84,0-9.68.12-14.51.06-3.22,2.42-5,5.57-4.31.27.06.76,0,.88-.18C39.18,65.42,41,65,43.15,65.45c1-2.58,2.82-3.77,5.82-3.17V59.19c0-1,0-2,0-2.95,0-2.72,1.8-4.62,4.3-4.63a4.33,4.33,0,0,1,4.34,4.59c0,6.06,0,12.12,0,18.17v1.37ZM38.62,94.61c4.73,0,9.37,0,14,0,.25,0,.6-.34.72-.6a5,5,0,0,1,3.39-2.86,5.6,5.6,0,0,0,4-3.73c1.29-3.87,2.47-7.79,3.67-11.69.27-.87.18-1.72-.79-2.07s-1.56.18-2,1c-.7,1.53-1.38,3.08-2.14,4.59a2.39,2.39,0,0,1-3.41,1,2.61,2.61,0,0,1-1.26-2.6q0-10.26,0-20.53a3.35,3.35,0,0,0-.1-1.5c-.3-.52-.87-1.16-1.35-1.19s-1.07.59-1.43,1.06c-.23.28-.15.82-.15,1.25,0,6.14,0,12.27,0,18.41,0,1.15-.54,1.78-1.46,1.72S49,76.17,49,75.22c0-1.85,0-3.7,0-5.54a19.09,19.09,0,0,0-.07-3.3A2,2,0,0,0,47.73,65a2,2,0,0,0-1.54.68,2.54,2.54,0,0,0-.26,1.47c0,2.67,0,5.35-.07,8A2.27,2.27,0,0,1,45,76.82c-.89.56-1.9-.23-1.92-1.45,0-1.84,0-3.69,0-5.54,0-1.13-.68-1.83-1.62-1.73S40.05,69,40,69.92c0,1.81,0,3.62,0,5.43,0,.93-.4,1.59-1.34,1.61s-1.46-.65-1.45-1.63c0-1.18,0-2.36,0-3.54,0-1-.45-1.61-1.46-1.62a1.4,1.4,0,0,0-1.51,1.58c0,4.92-.1,9.83-.1,14.75a5.09,5.09,0,0,0,2.12,4.28A5.53,5.53,0,0,1,38.62,94.61Zm7.27,8c3.3,0,6.6,0,9.9,0,1.39,0,1.93-.52,2-1.89a9.77,9.77,0,0,0,0-1.53A1.67,1.67,0,0,0,56,97.44q-10,0-20,0a1.7,1.7,0,0,0-1.87,1.83,11.61,11.61,0,0,0,0,1.18c0,1.62.6,2.17,2.24,2.18Z"/><path class="cls-1" d="M77,65.78c2.76,0,5.19,0,7.61,0,1.19,0,2,1,1.42,1.93a1.81,1.81,0,0,1-1.28.79c-7.66.06-15.31,0-23,.06-1,0-1.54-.49-1.54-1.4s.64-1.39,1.58-1.39h7.51c-.51-.58-.81-1-1.14-1.28A59.34,59.34,0,0,1,57.37,50.71,22.3,22.3,0,0,1,55.92,31.9c2.47-7,7.55-10.89,14.93-11.79,8.37-1,15.87,2.93,19,10.31a22.17,22.17,0,0,1-.4,19.38A53.79,53.79,0,0,1,79.67,63C78.86,63.87,78,64.69,77,65.78Zm-3.79-.43c5.29-4.82,10-9.86,13.38-16.07a19.26,19.26,0,0,0,1.6-15.17c-1.65-5.62-5.13-9.55-11-10.83C71.11,22,65.49,23,61.43,28a17.77,17.77,0,0,0-3.06,17.79C61.13,53.81,67,59.6,73.17,65.35Z"/><path class="cls-1" d="M61.46,38.51A11.74,11.74,0,1,1,73.14,50,11.58,11.58,0,0,1,61.46,38.51ZM73.2,47.22a8.65,8.65,0,1,0,0-17.3,8.66,8.66,0,1,0,0,17.3Z"/></svg>