<svg id="Capa_1" data-name="Capa 1" xmlns="http://www.w3.org/2000/svg" viewBox="0 0 123.94 123.94"><defs><style>.cls-1{fill:#f5f5ec;}</style></defs><path class="cls-1" d="M38.77,65.92c.25-.74.54-1.53.78-2.34,1.53-5.13,5-8.34,10-10.13,1.21-.43,2.48-.67,3.71-1a2,2,0,0,1,1.9.47c2.05,1.65,4.13,3.26,6.17,4.92a.87.87,0,0,0,1.32,0q3-2.51,6.19-4.88a2.43,2.43,0,0,1,1.65-.51c5,.88,9.36,2.85,12.13,7.31A34.64,34.64,0,0,1,84.82,65a9.47,9.47,0,0,1,.31,1c1.33-.26,2.59-.61,3.87-.73a7.36,7.36,0,0,1,5.4,1.54A3.85,3.85,0,0,1,96,70.92c-.4,1.79-.63,3.62-.94,5.42a.82.82,0,0,0,.44,1C98.22,79,99,81.55,99,84.55a23.89,23.89,0,0,1-1,7c-.65,2-1.75,3.66-4,4.17l-.16,0c-.49.09-1.15,0-1.42.33s-.24,1-.33,1.49c-.22,1.13-.44,2.25-.65,3.39a1.64,1.64,0,0,1-1.32,1.48c-3.26.69-6.5,1.56-9.8,2a131.73,131.73,0,0,1-20.25,1,122.61,122.61,0,0,1-22.46-2.08c-1.29-.26-2.55-.64-3.83-1a1.52,1.52,0,0,1-1.2-1.29c-.35-1.74-.69-3.48-1-5.24-.51-.06-1-.07-1.48-.17a4.93,4.93,0,0,1-3.66-3.22,20.41,20.41,0,0,1-1.31-9.68,6.79,6.79,0,0,1,3.58-5.63,1,1,0,0,0,.28-.8c-.35-2.05-.78-4.08-1.11-6.13a3.7,3.7,0,0,1,1.48-3.47,7.2,7.2,0,0,1,5.6-1.62A37.69,37.69,0,0,1,38.77,65.92ZM92.57,73c-10.17,2.27-20.42,2.37-30.66,2.33S41.44,75,31.32,72.84c.26,1.87.55,3.67.74,5.48.08.73.3.91,1,.85a6,6,0,0,1,6.47,4.09,15.74,15.74,0,0,1,.8,5.14c0,3.73-1.8,5.9-5.38,7-.15,0-.29.13-.48.21.19,1.08.42,2.12.55,3.17a1.38,1.38,0,0,0,1.25,1.32A102.75,102.75,0,0,0,55,102.41a146,146,0,0,0,23.56-.67c3.11-.37,6.2-1.06,9.28-1.64a1.16,1.16,0,0,0,.81-.63c.31-1.27.51-2.56.74-3.8-.13-.09-.17-.14-.21-.15l-.63-.2a6.65,6.65,0,0,1-4.82-5.41,12,12,0,0,1,.86-7.15,5.21,5.21,0,0,1,3.81-3.3c1.09-.2,2.2-.31,3.32-.46q.41-2.82.83-5.66A1.92,1.92,0,0,0,92.57,73ZM42.41,71.58a252.35,252.35,0,0,0,39,.18A7.37,7.37,0,0,1,82,69.32a2.9,2.9,0,0,0,.14-3.11c-.26-.6-.33-1.28-.62-1.86a24.25,24.25,0,0,0-2.19-4.09c-2-2.66-4.94-3.89-8.07-4.71a1.48,1.48,0,0,0-1.49.33c-2.17,1.75-4.37,3.48-6.56,5.2a1.61,1.61,0,0,1-2.49,0c-2-1.6-4.08-3.14-6-4.82A2.56,2.56,0,0,0,52,55.73c-3.76,1.12-7,3-8.75,6.64a50.25,50.25,0,0,0-1.9,5.33.57.57,0,0,0,.07.46A5.33,5.33,0,0,1,42.41,71.58Zm52.52,8.78a5.19,5.19,0,0,1-4.51,1.69A3,3,0,0,0,87.26,84a9.69,9.69,0,0,0-.65,5.22,3.76,3.76,0,0,0,2.94,3.35,21.45,21.45,0,0,0,2.91.4,2.1,2.1,0,0,0,2.42-1.52,16.76,16.76,0,0,0,.88-9.4A8.42,8.42,0,0,0,94.93,80.36Zm-66,0a13.06,13.06,0,0,0-.84,2.29,17.14,17.14,0,0,0,1.11,9,2,2,0,0,0,2.16,1.3c.79-.06,1.58-.09,2.36-.22a4,4,0,0,0,3.68-3.8,9.45,9.45,0,0,0-.56-4.68,3,3,0,0,0-3-2.16A6.18,6.18,0,0,1,28.93,80.33Zm55.62-8.92A29.53,29.53,0,0,0,93,69.55c-1.15-1.43-3.54-1.82-5.85-1C85.51,69.09,84.55,70.1,84.55,71.41ZM31,69.36a29.21,29.21,0,0,0,8.4,1.86c-.12-1.35-1.06-2.25-2.82-2.75C34.62,67.9,32.69,67.8,31,69.36Z"/><path class="cls-1" d="M67.6,20.29c5.18,2.58,8.16,6.55,8.22,12.44a5.61,5.61,0,0,1,0,.82.89.89,0,0,0,.65,1.06,2.19,2.19,0,0,1,1.62,2.13,2.14,2.14,0,0,1-1.67,2c-1,.27-1.14.86-1.25,1.7A13.23,13.23,0,0,1,64.66,51.67,12.84,12.84,0,0,1,52,47.44a13,13,0,0,1-3.35-7.57.91.91,0,0,0-.75-.92,2.66,2.66,0,0,1-.6-.26,2.21,2.21,0,0,1-1.47-2,2.09,2.09,0,0,1,1.46-2,1.16,1.16,0,0,0,.81-1.29c-.12-5.94,2.53-10.21,7.83-12.89a.84.84,0,0,0,.33-.54A1.53,1.53,0,0,1,58,18.56h7.56C67,18.56,67.41,18.92,67.6,20.29ZM61.93,35.67c-3.08.22-6.14.45-9.2.65-.76.06-1.15.31-1.19,1.17-.25,4.26,1.18,7.69,4.89,10a10,10,0,0,0,10.77.16c3.77-2.2,5.45-5.69,5.15-10.09,0-.82-.38-1.15-1.17-1.2C68.09,36.12,65,35.89,61.93,35.67Zm10.86-2.1c.59-3.85-2.25-9.07-5.49-9.9l1.1,6.59-2.67.79a30.19,30.19,0,0,1-1.27-9.48h-5c-.1,1.66-.11,3.25-.31,4.82s-.59,3.08-.91,4.69l-2.87-.85a25,25,0,0,0,1-6.54c-3.34,1.35-6.1,6.57-5.25,9.87A83.38,83.38,0,0,1,72.79,33.57Z"/></svg>