<?xml version="1.0" encoding="UTF-8"?>
<svg id="Layer_1" data-name="Layer 1" xmlns="http://www.w3.org/2000/svg" viewBox="0 0 43.72 43.58">
  <defs>
    <style>
      .cls-1 {
        fill: #044524;
      }
    </style>
  </defs>
  <path class="cls-1" d="M16.98,21.89c.49-.61,.97-1.19,1.43-1.78,.38-.54,1.01-.85,1.68-.82h1.01c.25,.04,.49-.1,.58-.33,.56-1.05,1.15-2.09,1.73-3.13-1.21-1.2-3.16-1.19-4.37,.02-.26,.26-.47,.56-.62,.9-.01,.13,.04,.26,.14,.35,.38,.38,.78,.74,1.23,1.16l-1.07,.75-.22-.24c-.72-.86-1.78-1.35-2.9-1.35h-.51c-.47,0-.68-.2-.72-.68-.03-.88-.67-1.61-1.53-1.77-.67-.19-1.38,.2-1.57,.87-.02,.08-.04,.17-.05,.25-.06,.51-.2,.68-.68,.68-1.03,.05-1.83,.91-1.8,1.94v.35c0,.61-.14,.76-.76,.84-1.21,.14-1.88,1.11-1.7,2.48h4.94v1.25c-.07,0-.14,0-.22,0H5.74c-.49,0-.72-.2-.72-.68-.03-.56-.02-1.11,.04-1.67,.19-1.28,1.17-2.31,2.44-2.57-.03-.84,.3-1.66,.92-2.23,.45-.32,.92-.6,1.42-.84,.1-.06,.24-.13,.27-.22,.68-1.94,2.98-2.28,4.48-.95,.49,.44,.83,1.01,.98,1.65l1.59,.24c.95-2.25,3.54-3.3,5.79-2.35,.36,.15,.71,.35,1.02,.6,.37-.3,.77-.56,1.19-.78,1.06-.41,2.25,.09,2.7,1.13,.94,1.85,1.86,3.71,2.79,5.57,.47,.95,.95,1.88,1.4,2.82,.06,.22,.28,.36,.5,.32h.97c.73-.04,1.42,.35,1.78,.99,1.54,2.4,3.07,4.82,4.65,7.2,.46,.61,.68,1.38,.61,2.14-.05,.49,0,.99,0,1.48,.04,.34-.21,.64-.55,.68-.04,0-.09,0-.13,0H4.09c-.8-.01-.89-.16-.96-.95-.04-.75,.2-1.5,.68-2.08,1.53-2.15,3.03-4.32,4.5-6.5,.41-.75,1.23-1.18,2.08-1.09,.35,.07,.7-.12,.84-.45,.68-1.19,1.45-2.34,2.17-3.51,.84-1.35,2.27-1.41,3.23-.17l.34,.48Zm13.84,1.74c-.04-.12-.09-.23-.15-.34-1.28-2.57-2.57-5.13-3.84-7.7-.14-.39-.49-.65-.91-.68-.42,.02-.78,.28-.93,.68-.61,1.13-1.24,2.25-1.86,3.38-.06,.11-.11,.23-.16,.34h1.35v1.23h-4.15c-.23-.01-.46,.06-.63,.2-.61,.68-1.18,1.44-1.77,2.17,.1,.14,.18,.26,.26,.37,2.44,3.2,4.88,6.41,7.32,9.61,.44,.58,1.08,1.09,.86,1.96h13.12v-1.51c-.01-.11-.05-.22-.11-.32l-4.97-7.73c-.15-.26-.44-.42-.74-.4h-4.13v-1.28h1.44Zm-5.77,11.25c-.04-.19-.11-.38-.2-.55-3.08-4.05-6.18-8.1-9.28-12.16-.36-.47-.76-.46-1.08,.05l-1.9,3.07c-.04,.09-.08,.17-.11,.26h1.92v1.23h-4.05c-.37-.03-.72,.15-.91,.47-1.61,2.33-3.22,4.65-4.83,6.99-.11,.21-.19,.44-.24,.68l20.69-.03Z"/>
  <path class="cls-1" d="M29.99,17.42v-1.22h9.29c.32-1.03-.26-2.13-1.3-2.45-.13-.04-.27-.07-.4-.08-.53-.05-.68-.23-.68-.76,.01-.22,.01-.45,0-.68-.1-.93-.86-1.65-1.79-1.7-.49-.04-.68-.19-.68-.68-.05-.7-.66-1.22-1.36-1.17-.12,0-.24,.04-.36,.08-.83,.17-1.44,.88-1.49,1.73-.05,.53-.24,.73-.76,.68-1.39-.13-2.74,.48-3.56,1.61l-1.03-.71c.95-1.36,2.5-2.16,4.15-2.16,.16-.67,.52-1.27,1.03-1.72,1.29-1.13,3.25-1.01,4.05,.33,.31,.53,.78,.95,1.35,1.18,1.03,.47,1.51,1.35,1.67,2.78,1.13,.21,2.03,1.06,2.31,2.17,.13,.75,.18,1.52,.13,2.28,0,.37-.34,.5-.72,.5h-9.87Z"/>
  <path class="cls-1" d="M23.98,13.1l-1.15-.48,.72-1.73,1.16,.47-.72,1.74Z"/>
  <path class="cls-1" d="M18.52,13.1l-.72-1.73,1.16-.49,.72,1.74-1.16,.48Z"/>
  <path class="cls-1" d="M15.58,13.16l.78-.8,1.3,1.31-.81,.76-1.28-1.27Z"/>
  <path class="cls-1" d="M20.64,12.4v-1.82h1.2v1.82h-1.2Z"/>
</svg>