<?xml version="1.0" encoding="UTF-8"?>
<svg id="Layer_1" data-name="Layer 1" xmlns="http://www.w3.org/2000/svg" viewBox="0 0 43.72 43.58">
  <defs>
    <style>
      .cls-1 {
        fill: #044524;
      }
    </style>
  </defs>
  <path class="cls-1" d="M41.66,29.93c-.15,.28-.46,.43-.77,.39h-4.56c-.7,.02-1.37-.29-1.82-.83-.34-.39-.69-.76-1.07-1.1-.31-.3-.37-.6-.14-.88,.2-.24,.55-.28,.79-.08,.01,.01,.02,.02,.04,.03,.42,.37,.81,.76,1.17,1.18,.27,.36,.7,.57,1.15,.56h4.41c.31-.02,.61,.13,.77,.4l.02,.33Z"/>
  <path class="cls-1" d="M41.66,40.07c-.21,.24-.51,.36-.83,.34h-5.34c-.3,0-.55-.24-.56-.54,0,0,0-.02,0-.03-.02-.31,.22-.58,.53-.6,0,0,0,0,0,0h5.37c.33-.05,.65,.1,.83,.38v.44Z"/>
  <path class="cls-1" d="M21.84,7.42c.38-.51,.71-1.02,1.12-1.46,2.1-2.46,5.48-3.4,8.55-2.39,3.08,.79,5.37,3.36,5.81,6.51,.53,2.69-.37,5.47-2.37,7.35-3.77,3.78-7.54,7.55-11.33,11.33-.11,.1-.24,.19-.37,.27l.08,.12c.7,.04,1.4,.04,2.1,0,.33-.08,.63-.28,.83-.56,1.13-1.51,2.94-2.37,4.83-2.28h.16c.34,0,.61,.28,.61,.62-.02,.33-.3,.58-.63,.56,0,0-.02,0-.03,0-1.64-.14-3.22,.62-4.15,1.98-.41,.55-1.06,.86-1.74,.83h-5.43c-.62-.03-1.21,.29-1.52,.83-.43,.72-.2,1.65,.52,2.08,.21,.13,.46,.2,.71,.21h6.81c.17-.03,.33,0,.49,.06,.18,.13,.31,.31,.38,.51,.06,.25-.09,.5-.34,.56,0,0,0,0-.01,0-.17,.04-.35,.06-.53,.05H13.22c-.37,.02-.73-.13-.98-.41-2.07-2.09-4.14-4.19-6.22-6.28-.54-.63-1.47-.73-2.14-.25-.71,.5-.88,1.49-.38,2.2,.06,.08,.13,.16,.2,.23l4.32,4.53c.83,.9,1.72,1.78,2.56,2.69,1.13,1.25,2.75,1.95,4.44,1.92h17.43c.17,0,.34,0,.5,.05,.3,.1,.47,.42,.37,.72-.07,.21-.25,.36-.47,.39-.13,0-.26,0-.39,0H14.99c-1.95,.04-3.82-.75-5.15-2.17-2.33-2.43-4.65-4.86-6.97-7.29-1.09-1.06-1.11-2.81-.04-3.9,.37-.38,.84-.64,1.36-.76,.98-.24,2.01,.08,2.67,.83,1.73,1.81,3.48,3.47,5.19,5.31,.59,.76,1.53,1.16,2.49,1.05,.93-.09,1.88,0,2.86,0-.63-.96-.6-2.21,.08-3.14,.69-.91,1.83-1.34,2.95-1.13l-.37-.41-7.47-7.52c-.1-.09-.18-.18-.26-.29-.15-.22-.12-.52,.08-.71,.18-.2,.48-.24,.71-.09,.11,.08,.22,.18,.32,.28,2.69,2.71,5.39,5.41,8.08,8.12,.1,.12,.2,.24,.29,.37,.16-.16,.27-.26,.37-.37,3.95-3.97,7.9-7.93,11.84-11.9,1.47-1.4,2.28-3.35,2.22-5.38-.15-3.93-3.46-7-7.39-6.86-2.84,.11-5.35,1.89-6.38,4.54-.12,.3-.27,.54-.63,.53s-.48-.24-.6-.52c-1.39-3.68-5.5-5.53-9.18-4.14-2.47,.94-4.22,3.17-4.55,5.79-.27,2.19,.51,4.38,2.09,5.91l1.66,1.66c.26,.19,.32,.56,.13,.83-.14,.26-.46,.36-.72,.22-.04-.02-.08-.05-.11-.08-1.24-1.25-2.61-2.38-3.42-4.01-2.02-4.11-.33-9.09,3.78-11.11,.76-.37,1.58-.63,2.42-.76,3.29-.58,6.59,.93,8.3,3.8,.05,.09,.11,.22,.18,.31Z"/>
  <path class="cls-1" d="M24.12,19.5v2.94c.02,.3-.2,.56-.49,.58-.03,0-.06,0-.09,0h-3.32c-.3,.03-.56-.19-.59-.48,0-.04,0-.08,0-.12v-2.95h-2.94c-.31,.04-.59-.17-.64-.48,0-.05,0-.11,0-.16v-3.21c0-.45,.2-.65,.66-.66h2.89v-2.65c0-.76,.13-.89,.9-.89h2.86c.56,0,.74,.19,.74,.75v2.79h2.83c.53,0,.72,.19,.73,.71v3.1c0,.51-.19,.7-.7,.7h-2.44l-.41,.04Zm-3.32-6.9v2.85c0,.46-.22,.68-.69,.69h-2.87v2.18h2.88c.31-.04,.6,.17,.65,.49,0,.05,0,.1,0,.15v2.92h2.18v-2.64c0-.78,.13-.92,.91-.92h2.62v-2.18h-2.26c-1.25,0-1.28,0-1.28-1.26v-2.28h-2.15Z"/>
</svg>