<?xml version="1.0" encoding="UTF-8"?>
<svg id="Layer_1" data-name="Layer 1" xmlns="http://www.w3.org/2000/svg" viewBox="0 0 43.72 43.58">
  <defs>
    <style>
      .cls-1 {
        fill: #044524;
      }
    </style>
  </defs>
  <path class="cls-1" d="M23.87,29.45l-.87-.87c-.07,.07-.15,.13-.21,.2l-5.38,5.37c-1.22,1.28-2.91,2.02-4.67,2.05-.19,0-.38,.08-.51,.23-1.22,1.23-2.45,2.45-3.68,3.67-.12,.12-.27,.21-.43,.26-.28,.06-.58-.07-.71-.33-.14-.26-.1-.58,.1-.8,.31-.32,.62-.63,.93-.94,1.04-1.04,2.08-2.07,3.11-3.12,.21-.22,.51-.34,.81-.32,1.51,.07,2.99-.51,4.04-1.61l5.43-5.43,.19-.2-.87-.87-.22,.19c-.82,.84-1.59,1.65-2.46,2.44-.24,.28-.66,.31-.94,.07-.2-.17-.28-.46-.2-.71,.06-.15,.16-.29,.27-.4l2.42-2.37,.1-.11-.57-1.17c-.05,.04-.1,.09-.15,.14l-2.69,2.69c-.24,.29-.66,.32-.95,.09-.11-.09-.19-.22-.22-.36-.07-.26,.03-.54,.24-.71l2.89-2.88c.55-.56,1.12-1.11,1.66-1.68,.08-.1,.12-.22,.14-.34,.08-.38,.14-.76,.22-1.17-.24-.16-.56-.1-.73,.13l-1.93,1.88c-1.02,1.03-2.04,2.06-3.08,3.08-.13,.13-.29,.23-.47,.28-.28,.06-.57-.09-.69-.35-.14-.27-.09-.61,.14-.81l1.63-1.63,2.41-2.42c.26-.22,.3-.61,.08-.87-.01-.02-.03-.03-.04-.04-.25-.24-.66-.24-.9,.02,0,0-.02,.02-.02,.03l-.09,.09c-1.83,1.83-3.66,3.67-5.5,5.5-.13,.13-.29,.22-.47,.26-.36,.05-.69-.2-.74-.56-.02-.11,0-.22,.03-.32,.27-.87,.57-1.75,.87-2.62,.11-.32-.06-.68-.39-.79-.06-.02-.13-.03-.2-.03-.28,0-.53,.18-.6,.45-.41,1.03-.83,2.05-1.23,3.08-.18,.48-.35,.97-.53,1.45-.09,.23-.19,.46-.31,.67-.54,.96-.77,2.06-.66,3.15,.04,.26-.05,.53-.24,.72-1.32,1.3-2.62,2.62-3.93,3.93-.18,.21-.47,.3-.74,.22-.27-.07-.47-.3-.5-.58-.03-.25,.07-.5,.27-.66l2.55-2.52c.35-.35,.71-.7,1.06-1.07,.08-.09,.12-.2,.12-.31-.05-1.28,.25-2.55,.87-3.68,.21-.46,.39-.94,.54-1.42,.47-1.2,.93-2.39,1.42-3.59,.33-.81,1.16-1.3,2.04-1.21,.88,.08,1.6,.74,1.75,1.61,.03,.29,.03,.58,0,.87,.04-.02,.08-.05,.12-.08,.72-.73,1.44-1.44,2.15-2.17,.08-.09,.12-.2,.12-.32v-5.17c-.06-1.87,.65-3.68,1.96-5.01,.07-.1,.1-.21,.1-.33V3.99c-.05-.36,.2-.7,.57-.75,.05,0,.1,0,.15,0,.32,0,.6,.23,.65,.55,0,.1,0,.2,0,.3v5.59c0,.29-.12,.56-.34,.75-1.1,.99-1.74,2.39-1.75,3.87v4.32l.2-.11c.32-.21,.69-.33,1.07-.34,.1-.01,.2-.05,.29-.1,.3-.2,.71-.12,.91,.18,.02,.04,.04,.07,.06,.12,.08,.23,.21,.44,.37,.62,.07,.09,.13,.18,.19,.28,.23-.07,.44-.14,.66-.23,.05-.03,.09-.08,.1-.13v-.32c.03-.35,.33-.62,.68-.62,.35,0,.64,.28,.66,.63,.01,.11,.01,.22,0,.32-.05,.27,.1,.54,.35,.66,.05,.03,.1,.04,.16,.04l.76-.07v-.87c0-.26,.16-.5,.4-.59,.23-.11,.5-.07,.69,.1,.12,.13,.22,.28,.3,.44l1.2-.2v-1.3c0-.05-.14-.12-.22-.14-1.01-.2-1.93-.74-2.61-1.51-1.22-1.35-1.56-3.27-.87-4.95,.12-.3,.29-.57,.5-.81,.23-.25,.61-.28,.87-.08,.27,.21,.33,.59,.14,.87-.77,1.14-.72,2.65,.12,3.74,.59,.93,1.59,1.51,2.69,1.56,.35,0,.67,.21,.8,.53,.36,.73,.73,1.43,1.09,2.15,.03,.12,.16,.19,.28,.16,.01,0,.03,0,.04-.01,.32-.06,.64-.11,.97-.14-.01-.14-.04-.27-.1-.39-.65-1.5-1.31-3-1.98-4.5-.09-.21-.17-.43-.24-.65-.29-1.07-.9-2.02-1.76-2.72-.19-.14-.31-.37-.31-.61V3.96c-.04-.32,.16-.62,.47-.72,.28-.1,.6,0,.75,.26,.08,.17,.13,.35,.12,.53v4.88c-.01,.23,.08,.45,.24,.6,.82,.79,1.42,1.77,1.75,2.86,.17,.52,.44,1.02,.66,1.53,.51,1.19,1.01,2.39,1.54,3.57,.23,.48,.26,1.04,.06,1.55-.06,.16,0,.23,.11,.31l5.24,5.24c1.31,1.24,2.06,2.96,2.08,4.77,.01,.13,.07,.25,.17,.35,1.24,1.26,2.49,2.5,3.74,3.75,.3,.23,.35,.66,.12,.96-.23,.3-.66,.35-.96,.12-.04-.03-.08-.07-.12-.12l-4.12-4.08c-.17-.16-.25-.39-.24-.62,.1-1.53-.48-3.03-1.58-4.1-1.83-1.83-3.67-3.66-5.5-5.5-.17-.21-.45-.3-.71-.23-.22,.06-.38,.24-.43,.46-.04,.24,.05,.48,.24,.64,.8,.8,1.61,1.6,2.4,2.4,.13,.13,.22,.28,.28,.45,.07,.28-.06,.57-.31,.71-.26,.16-.6,.11-.81-.1-.48-.46-.94-.94-1.42-1.42l-2.94-2.94c-.18-.23-.5-.3-.76-.17-.24,.11-.38,.37-.33,.63,.04,.16,.11,.3,.23,.42,1.42,1.43,2.83,2.85,4.25,4.27,.2,.15,.3,.4,.27,.65-.02,.26-.2,.47-.45,.54-.25,.09-.54,.03-.72-.17l-2.09-2.09-3-3c-.16-.2-.42-.28-.66-.21-.23,.06-.4,.25-.44,.49-.04,.23,.05,.46,.23,.61l2.75,2.75c.73,.73,1.48,1.47,2.21,2.21,.3,.23,.35,.66,.11,.96-.23,.3-.66,.35-.96,.11-.04-.03-.08-.07-.12-.12l-3.93-3.94c-.19-.24-.52-.32-.8-.19-.31,.15-.44,.52-.29,.83,.04,.08,.09,.15,.16,.2l1.83,1.83,3.8,3.79c.2,.17,.28,.43,.23,.68-.08,.36-.44,.59-.81,.51-.04-.01-.09-.02-.13-.04l-2.52-.81c-.31-.16-.69-.04-.85,.27-.16,.31-.04,.69,.27,.85,.04,.02,.09,.04,.14,.05l4.7,1.82c.24,.11,.48,.23,.71,.36,.86,.45,1.82,.64,2.79,.55,.38-.06,.77,.08,1.02,.38,1.24,1.27,2.5,2.52,3.75,3.77,.12,.11,.21,.25,.25,.4,.08,.28-.05,.58-.3,.73-.25,.15-.58,.12-.8-.08-.38-.35-.73-.72-1.09-1.07l-2.62-2.62c-.1-.09-.22-.14-.36-.14-1.28,.02-2.54-.3-3.65-.93-.46-.2-.92-.38-1.4-.52-1.21-.48-2.43-.95-3.63-1.45-.72-.28-1.2-.97-1.2-1.75-.04-.72,.33-1.39,.95-1.75,.48-.3,1.06-.39,1.6-.24Z"/>
</svg>