<svg id="Capa_1" data-name="Capa 1" xmlns="http://www.w3.org/2000/svg" viewBox="0 0 576.01 57.26"><defs><style>.cls-1{fill:#eeb280;}</style></defs><path class="cls-1" d="M575.73,58.79V15.73c0-.44.14-.9-.18-1.32s-1.12-.29-1.56-.63a1.56,1.56,0,0,0-.68-.13,3.51,3.51,0,0,1-1.4-.42,2.62,2.62,0,0,0-2.15.63c-.57.41-1.22,1-1.94.78-1.76-.45-3.43.14-5.14.09a7.48,7.48,0,0,0-3.35.45,1.34,1.34,0,0,1-1.27,0c-2.43-1.37-5.64-.7-8.1-2a3.07,3.07,0,0,0-1.33-.07,3.71,3.71,0,0,1-1.61-.24c-1.45-.75-3.47-.54-4.61-1.83a1.31,1.31,0,0,0-.68-.24,1.24,1.24,0,0,1-1-.48c-.79-.57-.76-1.71-2-1.93-.36,0-.72,0-1.08-.08-1-.46-2.06.31-2.85,0a1.83,1.83,0,0,0-2.49.81,1.88,1.88,0,0,1-2.68.4A9.1,9.1,0,0,0,528,8.61c-.71-.2-1.25-.43-1.17-1.17a.89.89,0,0,0-.87-.89,3.65,3.65,0,0,1-2.42-1.67c-.89-1.06-1.34-1.19-2.73-.62A1.17,1.17,0,0,1,519.24,4a1.37,1.37,0,0,0-1.37-.6,3.69,3.69,0,0,1-3.82-.92,4.07,4.07,0,0,0-1.46-.61,1.41,1.41,0,0,1-.9-.74c-.66-1.28-.8-1.38-2.29-.76-1.69.71-3.66,1.31-3.49,3.37,0,.44-.38.82-.75,1.16-1.91,1.76-3.63,3.68-6.42,4.62a1.64,1.64,0,0,1-1.07.43,4,4,0,0,0-1.72.92,10.5,10.5,0,0,1-5,2.28,10.18,10.18,0,0,0-3.46.62c-1.74,1-3.58.8-5.46.74a.91.91,0,0,1-1-.37c-.51-.44-.9-1.09-1.66-1.18a5.64,5.64,0,0,1-3.93-2.33,2.22,2.22,0,0,0-3-.52c-.9.58-1.62,1.42-3,.75-.14-.07-.38,0-.56.12a6.46,6.46,0,0,0-3.26,2.13,7.83,7.83,0,0,1-1.64,2,.79.79,0,0,1-.48,0,2,2,0,0,0-1.71-.12c-1.42.67-3.07.47-4.58.83a2.55,2.55,0,0,1-2.32-.57,1.75,1.75,0,0,0-1.79-.32c-1,.4-1.93.77-3,.06-.44-.29-1.05,0-1.48.32-.63.67-1.57.37-2.37.5a1.71,1.71,0,0,0-1.19,1.17c-.08.21-.11.59-.51.46-1.31-.45-1.28.4-1.68,1-.68,1-.86,2.21-1.64,3.31-.48-.61-.25-1.13-.45-1.58a4.62,4.62,0,0,0-.58-1.18,2.3,2.3,0,0,0-1.6-.53,2.44,2.44,0,0,1-2.29-1,1.7,1.7,0,0,0-1.59-.45c-.33.08-.67.16-.92-.12-1.58-1.84-2.19-2.08-4.19-1.16a6.74,6.74,0,0,1-3.64.67c-.57.09-.94-.28-1.4-.43a20.41,20.41,0,0,0-4.28-.38c-1,0-1.78.22-2.16,1a1.31,1.31,0,0,1-1.29.66c-1.16,0-2.3.09-3-.9a1.83,1.83,0,0,0-1.1-.6c-.54-.09-1.18.06-1.57-.41a29.46,29.46,0,0,1-2.43-3.3c-.71-1-1.09-1-2.36-.41a.45.45,0,0,1-.42.05c-.34-.32-.53-.76-1-1a12.22,12.22,0,0,0-1.91-.17A1.53,1.53,0,0,1,402,10a2.37,2.37,0,0,0-1.69-.83.89.89,0,0,0-.82.61,1.4,1.4,0,0,0,0,.88c.11.32-.1.46-.43.54a2.06,2.06,0,0,0-1.59,2.4.19.19,0,0,1-.06.18c-.74-.56-1.33-1.34-2.56-1.31-.63,0-1.26,0-1.89,0-1.29-.12-2.45.53-3.74.42a2.26,2.26,0,0,1-1.69-.36,4.72,4.72,0,0,0-2.76,0,5.79,5.79,0,0,1-2.76.22,2.83,2.83,0,0,0-3,1,.51.51,0,0,1-.3.07c-.46-.58-1.5-.67-1.85-1.32-.49-.95-1.1-.88-1.89-.26a1.28,1.28,0,0,1-1.78.07c-1.54-1.16-2.83-.85-3.66.82-.1.46-.53.5-1,.52-1.4.82-2.8,1.09-4.22,0-.06,0-.19,0-.29,0a6.65,6.65,0,0,0-.89,0c-1.68,1-3.61.79-5.49.8a1.06,1.06,0,0,1-1.06-.36c-1-.73-2-1.53-3.53-1a1.11,1.11,0,0,1-1.21,0c-1.76-.59-3.06.34-4.37,1a3.51,3.51,0,0,1-1.9.55c-2.09-.16-4.07,0-5.65,1.35a1.31,1.31,0,0,1-1.69.05c-1.26-.73-1.6-.6-1.91.71a1,1,0,0,1-1.17.85c-2.79,0-5.7.37-7.89-1.6a1,1,0,0,0-.55-.17,4.31,4.31,0,0,0-.88,0,1.16,1.16,0,0,0-.66.26c-1,1-1.89.72-2.88,0s-2.23-1.49-3.29-2.28a2.72,2.72,0,0,0-2.43-.63c-.46.2-.92.43-1.36,0a6.08,6.08,0,0,0-5-1.7,1.1,1.1,0,0,1-1.18-.09,3,3,0,0,0-3.48.57c-.7.8-1.17.73-2,.07-1.33-1.12-2-1.06-3.3.14a.74.74,0,0,1-.46.1c-1.73-.57-1.95-.52-3.14.66-.28.27-.5.6-1.06.55a7.32,7.32,0,0,0-4.49,1.56,3.62,3.62,0,0,1-2.48.47c-1-.07-.55-1.09-1.33-1.28a3.65,3.65,0,0,1-.91-.32c-.09-.1-.17-.2-.26-.29-1.32-1.44-2.06-1.41-3.08.16a.67.67,0,0,1-1,.31c-.41-.18-1-.33-1.21.05-.64,1.14-2.22,1.15-3.17,1.89a.84.84,0,0,1-1,0,1.78,1.78,0,0,0-1.43,0,2.89,2.89,0,0,1-1.38.61,4.54,4.54,0,0,0-.6.36c-.28.19-.51.05-.74-.07a2.61,2.61,0,0,0-3.07.15,6.83,6.83,0,0,1-1.23.64c-.34.17-.6.47-1.07.41a2.62,2.62,0,0,0-1,.15c-.35.13-.63.4-1.07.37a2.54,2.54,0,0,0-.78.12.93.93,0,0,1-1-.08A2.63,2.63,0,0,0,262,18.3c-.29,0-.59,0-.88,0a2.31,2.31,0,0,0-1.51.68,9.88,9.88,0,0,1-3.28,1.77,1,1,0,0,1-1.17,0,2.54,2.54,0,0,0-1.28-.23,3,3,0,0,0-.89.1A31.14,31.14,0,0,0,251.08,24c-.59,1.11-.54,1.16-1.87.63s-1.79-.4-2.44.73c-.13.22-.27.43-.41.65a1.47,1.47,0,0,1-2.07.58,2.5,2.5,0,0,0-1.75-.11,2.16,2.16,0,0,1-1.15.35,25,25,0,0,0-4.15.09,3.83,3.83,0,0,1-2.7-.42,4.39,4.39,0,0,0-3.67-.8c-.73.09-1.53,0-1.53-.91,0-.59.1-1.28-.8-1.55a3.57,3.57,0,0,0-3.51.54,1.31,1.31,0,0,1-1.5.42,4.48,4.48,0,0,0-3,.35.91.91,0,0,1-.67,0,2.71,2.71,0,0,0-1.31-.54,8.56,8.56,0,0,0-1.13,0,2.2,2.2,0,0,0-1.25.71,1.42,1.42,0,0,1-1.12.57,1.72,1.72,0,0,1-2.22-.68,7.85,7.85,0,0,0-3.61-2.8,9.74,9.74,0,0,0-1.08,0,13.54,13.54,0,0,0-4.4,1.39,3.6,3.6,0,0,1-3.13.49c-1.27-.47-1.57-.39-2,.71-.17.45,0,1.08-.59,1.32a3.29,3.29,0,0,0-1.79,2c.32-1.39-1.37-2.08-1.63-3.33s-1-1.47-2.65-1.33a1,1,0,0,1-1.17-.11,4,4,0,0,0-2.61-.71c-1,.11-1.28-.24-1.43-1s-.35-1.73-1.68-1.91c-.29,0-.58,0-.88,0a2.44,2.44,0,0,0-1,.15.78.78,0,0,1-.62,0c-.32-.19-.66-.45-1.06-.3a2.77,2.77,0,0,1-2.09-.28c-.46-.05-.73-.36-1.12-.49-1.88-.17-3.32-1.76-5.49-1.08-.33.1-.9-.25-1.35-.41a4.32,4.32,0,0,0-1.55-.35c-.49.08-.78-.23-1.15-.37a6.37,6.37,0,0,0-2.13-.38c-.48.09-.75-.18-1.07-.38a3.54,3.54,0,0,1-2.45-2.56,2.06,2.06,0,0,0-2.41-1.59A2.88,2.88,0,0,1,158,10.12a11.17,11.17,0,0,0-.83-.86c-1-.83-1.63-.66-2.16.4-.62,1.25-2,2.18-2.46,3.54-.11.29-.63.37-1,.55-1.3.68-2.77,1.11-4,1.9s-2.78,1.62-4.37.27c-.06-.05-.19,0-.29-.05a7.37,7.37,0,0,0-.94,0,10.92,10.92,0,0,1-4.19.57,5.28,5.28,0,0,0-1.77.12c-.42.11-.71.44-1.19.43a1.53,1.53,0,0,0-1.1.28c-.67.78-1.47.57-2.31.3-.63-.06-1.35.13-1.78-.44a6.05,6.05,0,0,1-.92-1.51c-.28-.44-.67-.94-1.3-.86-1.11.14-2.41-.16-3.3.26-1.27.6-1.91.36-2.57-.51a1.19,1.19,0,0,0-.61-.32c-.28,0-.56-.06-.83-.13a14.67,14.67,0,0,1-3.32-1,1.49,1.49,0,0,0-1.75.29,1.88,1.88,0,0,1-1.4.59,6.44,6.44,0,0,0-2.95.73,2,2,0,0,1-1.81.25,4.52,4.52,0,0,0-2.75-.33c-.46.08-.74-.05-.88-.45-.36-1-1.08-.77-2.08-.53-1.85.45-3.8,1.07-5.65-.09-.25-.15-.58-.3-.83-.14-1.59,1-1.74-.32-2.23-.94s-.67-1.27-1.45-1.65a2,2,0,0,0-.88-.09,7.75,7.75,0,0,0-2,.73,1.26,1.26,0,0,1-1.1.31,18.42,18.42,0,0,1-4-.18,3.71,3.71,0,0,0-2.84.28.74.74,0,0,1-.95,0,1.91,1.91,0,0,0-2-.37,1.81,1.81,0,0,1-1.15,0,2.84,2.84,0,0,0-2.62.5,1.35,1.35,0,0,1-1.46.37,2,2,0,0,0-2.39.36,1.9,1.9,0,0,1-1.13.27c-3.08.37-3.48.68-4,3.08a2.44,2.44,0,0,1-.1.24,1.84,1.84,0,0,1-1.09.28,6.27,6.27,0,0,0-3,1.85c-.84,1.07-2.15,1.1-3.49.92a1.75,1.75,0,0,1,.07-.81c.08-.45.16-.93-.36-1.23a1.65,1.65,0,0,0-1.66.2A5.54,5.54,0,0,0,55,18.79a1.61,1.61,0,0,1-1.65.5c-1.47-.16-3-.35-4.17.73a1.15,1.15,0,0,1-1.81,0c-.47-.36-1-.69-1.43-1.05a1.75,1.75,0,0,0-2.08-.16c-1.11.49-2.15,1.05-3.2,1.61a5.06,5.06,0,0,1-1.1,0c-2.18,0-4.37-.37-6.51.26a2.47,2.47,0,0,1-1.52.49c-.79,0-1.59,0-2.38,0a2.33,2.33,0,0,1-.79-.12,8.34,8.34,0,0,1-2.12-2,2.29,2.29,0,0,0-3.49-.06c-.57.5-.87,1.18-1.55,1.61a.55.55,0,0,1-.75,0A11.83,11.83,0,0,1,19,18.83c-.71-1-1.53-1.14-2.1-.07a3.81,3.81,0,0,1-3,2,1.82,1.82,0,0,1-1.41.45,4.9,4.9,0,0,1-1-.06c-.34-.07-.73-.14-.89-.4-.81-1.29-2.64-1.33-3.86-2.11a1,1,0,0,0-.85-.12c-1.08.46-2.36.22-3.44.68A3.48,3.48,0,0,1,.62,19a.87.87,0,0,0-.59.19V57.26"/></svg>