<svg id="Capa_1" data-name="Capa 1" xmlns="http://www.w3.org/2000/svg" viewBox="0 0 45.73 42.52"><defs><style>.cls-1{fill:#fefdf6;}</style></defs><path class="cls-1" d="M25.18,30l-1-1c-.08.08-.17.15-.24.23l-6.16,6.15a7.64,7.64,0,0,1-5.35,2.35.79.79,0,0,0-.58.26q-2.1,2.11-4.21,4.2a1.14,1.14,0,0,1-.49.3.73.73,0,0,1-.81-.38.78.78,0,0,1,.12-.91c.35-.37.71-.72,1.07-1.08,1.19-1.19,2.38-2.37,3.56-3.57a1.2,1.2,0,0,1,.93-.37,6,6,0,0,0,4.62-1.84l6.21-6.22.22-.23-1-1-.25.22C20.88,28.07,20,29,19,29.9a.76.76,0,0,1-1.3-.73,1.44,1.44,0,0,1,.31-.46L20.78,26l.12-.13-.65-1.34a2.07,2.07,0,0,0-.17.16L17,27.77a.77.77,0,0,1-1.34-.31.79.79,0,0,1,.27-.81l3.31-3.3c.63-.64,1.28-1.27,1.9-1.92a.81.81,0,0,0,.16-.39c.09-.43.16-.87.25-1.34a.61.61,0,0,0-.83.15L18.51,22c-1.17,1.18-2.34,2.36-3.53,3.53a1.34,1.34,0,0,1-.54.32.72.72,0,0,1-.79-.4.77.77,0,0,1,.16-.93l1.86-1.86,2.76-2.77a.71.71,0,0,0,.05-1.05.73.73,0,0,0-1.06.05l-.1.1c-2.1,2.1-4.19,4.2-6.3,6.29a1.08,1.08,0,0,1-.54.3.75.75,0,0,1-.81-1c.31-1,.65-2,1-3a.71.71,0,0,0-.67-.94.7.7,0,0,0-.69.52c-.47,1.18-.95,2.35-1.41,3.53-.21.55-.4,1.11-.61,1.66a5.89,5.89,0,0,1-.35.77,6.07,6.07,0,0,0-.75,3.61.94.94,0,0,1-.27.82c-1.51,1.49-3,3-4.5,4.5a.82.82,0,0,1-.85.25A.75.75,0,0,1,0,35.64a.84.84,0,0,1,.31-.75L3.23,32c.4-.4.81-.8,1.21-1.22a.54.54,0,0,0,.14-.36,8.06,8.06,0,0,1,1-4.21,15.2,15.2,0,0,0,.62-1.63c.54-1.37,1.07-2.74,1.63-4.11a2.25,2.25,0,0,1,2.33-1.38,2.22,2.22,0,0,1,2,1.84,5.54,5.54,0,0,1,0,1,1.1,1.1,0,0,0,.14-.09c.82-.83,1.65-1.65,2.46-2.48a.53.53,0,0,0,.14-.37c0-2,0-3.94,0-5.92a7.83,7.83,0,0,1,2.24-5.74.61.61,0,0,0,.11-.38q0-3,0-6.09A.76.76,0,0,1,18.07,0a.73.73,0,0,1,.74.63,2,2,0,0,1,0,.34c0,2.13,0,4.27,0,6.4a1.11,1.11,0,0,1-.39.86,6,6,0,0,0-2,4.43c0,1.56,0,3.13,0,4.7v.25l.23-.13a2.41,2.41,0,0,1,1.22-.39,1,1,0,0,0,.33-.11.75.75,0,0,1,1.11.34,2.19,2.19,0,0,0,.42.71,3.05,3.05,0,0,1,.22.32c.26-.08.5-.16.75-.26a.22.22,0,0,0,.11-.15c0-.12,0-.25,0-.37a.78.78,0,0,1,.78-.71.77.77,0,0,1,.76.72,1.53,1.53,0,0,1,0,.37.69.69,0,0,0,.4.75.37.37,0,0,0,.18.05l.87-.08c0-.31,0-.65,0-1a.72.72,0,0,1,.46-.68.7.7,0,0,1,.79.12,2.6,2.6,0,0,1,.34.5l1.37-.23c0-.47,0-1,0-1.49,0-.06-.16-.14-.25-.16A5.4,5.4,0,0,1,23.52,14a5.41,5.41,0,0,1-1-5.67,3.19,3.19,0,0,1,.57-.93.74.74,0,0,1,1-.09.75.75,0,0,1,.16,1,3.65,3.65,0,0,0,.14,4.28,3.84,3.84,0,0,0,3.08,1.78,1,1,0,0,1,.92.61c.41.83.84,1.64,1.25,2.46a.26.26,0,0,0,.36.17,10.55,10.55,0,0,1,1.11-.16A1.53,1.53,0,0,0,31,17q-1.12-2.58-2.27-5.15c-.1-.24-.2-.49-.28-.74A6,6,0,0,0,26.43,8a.86.86,0,0,1-.35-.7V.82A.77.77,0,0,1,26.62,0a.72.72,0,0,1,.86.3,1.3,1.3,0,0,1,.14.61q0,2.79,0,5.58a.86.86,0,0,0,.28.69,7.58,7.58,0,0,1,2,3.27c.2.6.5,1.17.76,1.75.58,1.36,1.16,2.73,1.76,4.09a2.23,2.23,0,0,1,.07,1.77c-.07.18,0,.26.13.36l6,6A7.63,7.63,0,0,1,41,29.88a.68.68,0,0,0,.19.4c1.42,1.44,2.85,2.86,4.28,4.29a.78.78,0,1,1-1.09,1.1L39.66,31a.9.9,0,0,1-.27-.71,6,6,0,0,0-1.81-4.69c-2.09-2.1-4.2-4.19-6.29-6.3a.77.77,0,0,0-.81-.26.7.7,0,0,0-.49.53.78.78,0,0,0,.27.73c.92.92,1.84,1.83,2.75,2.75a1.33,1.33,0,0,1,.32.52.73.73,0,0,1-.36.81.76.76,0,0,1-.93-.12c-.55-.53-1.08-1.08-1.62-1.62l-3.37-3.36a.71.71,0,0,0-.87-.19.67.67,0,0,0-.38.72,1,1,0,0,0,.26.48c1.62,1.64,3.24,3.26,4.87,4.89a.82.82,0,0,1,.31.74.71.71,0,0,1-.51.62.75.75,0,0,1-.82-.2l-2.39-2.39-3.43-3.43a.72.72,0,0,0-.76-.24.67.67,0,0,0-.5.56.73.73,0,0,0,.26.7l3.15,3.15c.84.84,1.69,1.68,2.53,2.53a.78.78,0,1,1-1.1,1.09l-4.5-4.51a.76.76,0,0,0-.91-.22.71.71,0,0,0-.15,1.18l2.09,2.1,4.35,4.34a.8.8,0,0,1,.26.78.77.77,0,0,1-1.07.53l-2.89-.93a.72.72,0,1,0-.5,1.34L29.73,35a8.79,8.79,0,0,1,.81.41,5.79,5.79,0,0,0,3.19.63,1.3,1.3,0,0,1,1.17.43c1.42,1.45,2.86,2.88,4.29,4.32a1.06,1.06,0,0,1,.29.46.74.74,0,0,1-.34.83.76.76,0,0,1-.91-.09c-.43-.4-.83-.82-1.25-1.23-1-1-2-2-3-3a.57.57,0,0,0-.41-.16,8.18,8.18,0,0,1-4.18-1.06,14.6,14.6,0,0,0-1.6-.6c-1.39-.55-2.78-1.09-4.16-1.66a2.13,2.13,0,0,1-1.37-2,2.17,2.17,0,0,1,1.09-2A2.32,2.32,0,0,1,25.18,30Z"/></svg>