<svg id="Capa_1" data-name="Capa 1" xmlns="http://www.w3.org/2000/svg" viewBox="0 0 63.83 25.85"><defs><style>.cls-1{fill:#fff;}</style></defs><path class="cls-1" d="M63.73,19.54A1.07,1.07,0,0,0,62.59,19a12.11,12.11,0,0,0-3.25.76,5.63,5.63,0,0,1-3.6-.1c.72-.52,1.39-1,2-1.47a16.59,16.59,0,0,0,6-11.7c.13-1.31-.44-1.71-1.68-1.24a63.7,63.7,0,0,1-6.49,2.09A97.56,97.56,0,0,1,45,9.38c-2.38.33-4.77.59-7.16.82-1.7.16-3.41.24-5.21.37.22-.23.35-.38.5-.52L41.23,2a6.2,6.2,0,0,0,.42-.46A.85.85,0,0,0,41.57.29a.85.85,0,0,0-1.24,0,6,6,0,0,0-.45.42Q35,5.51,30.19,10.36a1,1,0,0,1-.74.37c-1.66,0-3.32.09-5,.11-4.84.07-9.68,0-14.51-.26C7.1,10.44,4.23,10.3,1.38,10a1.37,1.37,0,0,0-1.38.6v.87c.14.23.05.49.08.73a26.78,26.78,0,0,0,1.65,6.09c.23.62.23.62-.4.55A1.13,1.13,0,0,0,0,19.57v.74c.13.2.22.44.44.55.86.32,1.8.27,2.67.6a8,8,0,0,0,5.78.05,6.62,6.62,0,0,1,4.74,0,7.73,7.73,0,0,0,5.6,0,6.51,6.51,0,0,1,4.68,0,7.89,7.89,0,0,0,5.66,0,6.41,6.41,0,0,1,4.68,0,7.78,7.78,0,0,0,5.6,0,6.4,6.4,0,0,1,4.62,0,8.55,8.55,0,0,0,6.14-.08,5.41,5.41,0,0,1,3.84,0,8.87,8.87,0,0,0,6.51,0,6.38,6.38,0,0,1,1.39-.31c.37,0,.81,0,1.07-.37A.93.93,0,0,0,63.73,19.54ZM24.81,18.09c-.41.33-.86.63-1.3.94s-.67-.05-1,0l-.05-.16c.45-.62.87-1.25,1.33-1.85a.74.74,0,1,1,1,1ZM25.23,15a2.69,2.69,0,0,0-2.92.85h0l-2.14,3c-.07.1-.15.24-.25.26a13.31,13.31,0,0,1-3,.8,6.72,6.72,0,0,1-3.22-.52,7.06,7.06,0,0,0-4.92,0A7.83,7.83,0,0,1,5.46,20a1,1,0,0,1-1-.6,21.51,21.51,0,0,1-1.33-3.27c1,.05,1.95.09,2.9.15s1.9.17,2.85.21c1.6.07,3.19.1,4.79.16a2.1,2.1,0,0,1,.42.09h0l4.57,0c.83,0,1.06-.21,1.17-1h0c-.13-.7-.63-.86-1.24-.87l-6.27-.16h0c-1.9-.11-3.81-.12-5.71-.3-1.07-.1-2.14-.14-3.22-.18-.61,0-1-.17-1.05-.88,0-.43-.41-.93-.16-1.24s.78,0,1.18,0c2.48.14,5,.35,7.44.39a1.67,1.67,0,0,1,.3.08c5.52.15,11,.2,16.74.12L25.58,15C25.47,15.07,25.35,15,25.23,15Zm28.25,3.64a3.24,3.24,0,0,1-1.3.36,7.88,7.88,0,0,0-2.48.54,6.13,6.13,0,0,1-4.61,0,7.73,7.73,0,0,0-5.77,0,6.18,6.18,0,0,1-4.61,0,7.9,7.9,0,0,0-5.76,0,5.73,5.73,0,0,1-3.18.35c0-.23.2-.3.32-.41A2.57,2.57,0,0,0,27,17c-.06-.35.09-.33.32-.34,1.88-.08,3.77-.14,5.66-.25,2.44-.13,4.87-.33,7.31-.57,3.13-.32,6.25-.74,9.35-1.29,1.1-.2,2.19-.42,3.29-.65.62-.13.88-.49.91-1.21h0c-.47-.69-.73-.79-1.64-.59-1.76.38-3.53.7-5.31,1q-4,.63-8.07,1-4.83.45-9.68.6h-.69c.78-.75,1.39-1.45,2.11-2,.39-.31,1-.2,1.51-.22,3.36-.13,6.7-.4,10-.79A85.72,85.72,0,0,0,61.35,7.52l.4-.1a10.86,10.86,0,0,1-.36,1.82c-.06.31-.29.38-.52.45-1.32.43-2.64.87-4,1.27-.65.2-1,.55-.95,1.25a1.05,1.05,0,0,0,1.49.57l2.88-.88a11.23,11.23,0,0,1-2,3.15A14.5,14.5,0,0,1,53.48,18.62Z"/><path class="cls-1" d="M10.48,12.62h-.06l0,0Z"/><path class="cls-1" d="M53.49,24.05c-.13.37-.31.73-.74.75a20,20,0,0,0-3.67.86,8,8,0,0,1-4.81-.43,5.28,5.28,0,0,0-3.89-.05,9,9,0,0,1-6.72,0,5,5,0,0,0-3.53,0,8.82,8.82,0,0,1-5.05.52c-.6-.13-1.18-.35-1.77-.53a5.26,5.26,0,0,0-3.48,0,9.09,9.09,0,0,1-5,.53,10,10,0,0,1-1.18-.36,7.6,7.6,0,0,0-2.3-.47,1,1,0,0,1-1-.79c.09-.84.42-1.08,1.27-1.06a8.7,8.7,0,0,1,2.77.61,5.71,5.71,0,0,0,4.07,0,8.44,8.44,0,0,1,6.29,0,5.45,5.45,0,0,0,4,0,8.48,8.48,0,0,1,6.34,0,5.5,5.5,0,0,0,4,0,8.44,8.44,0,0,1,6.29,0,5.71,5.71,0,0,0,4.07,0A8.7,8.7,0,0,1,52.21,23C53.05,23,53.38,23.22,53.49,24.05Z"/></svg>