<svg id="Capa_1" data-name="Capa 1" xmlns="http://www.w3.org/2000/svg" viewBox="0 0 42.52 42.52"><defs><style>.cls-1{fill:#fff;}</style></defs><path class="cls-1" d="M42.52,20.11c-.09,0-.07-.11-.08-.17a11.51,11.51,0,0,0-.88-3.47,15.48,15.48,0,0,0-4.69-6.11.44.44,0,0,1-.18-.55,3,3,0,0,0-.79-3.08,3,3,0,0,0-3.09-.8.46.46,0,0,1-.58-.19,16,16,0,0,0-3.69-3.43A12.45,12.45,0,0,0,16.91.81a15.23,15.23,0,0,0-6.62,4.95.43.43,0,0,1-.54.18,3,3,0,0,0-3.09.77,3.06,3.06,0,0,0-.81,3.13.4.4,0,0,1-.16.51A16,16,0,0,0,3.05,13C.05,16.85-.86,21.1.86,25.76a15,15,0,0,0,4.91,6.5c.16.13.26.21.18.47a3.14,3.14,0,0,0,3.94,3.94.34.34,0,0,1,.42.14c.29.35.58.7.9,1a14.46,14.46,0,0,0,7.38,4.4,9.77,9.77,0,0,1,1.43.28h.17a.62.62,0,0,1,.5,0h1.16c.16-.09.33,0,.5,0a9.52,9.52,0,0,0,4.46-1.12,15.39,15.39,0,0,0,5.3-4.24.65.65,0,0,1,.77-.28,3,3,0,0,0,1.6,0,3.23,3.23,0,0,0,2.25-4,.47.47,0,0,1,.17-.54,18.3,18.3,0,0,0,2.07-2,14.82,14.82,0,0,0,2.63-4.06,10.66,10.66,0,0,0,.92-3.67V20.77a.6.6,0,0,1,0-.49Zm-8.83-13a1.88,1.88,0,1,1,0,3.75,1.88,1.88,0,0,1,0-3.75ZM11.28,6.54a13.71,13.71,0,0,1,7.11-4.88,12.5,12.5,0,0,1,2.8-.39A12.4,12.4,0,0,1,29.87,5a13.74,13.74,0,0,1,1.36,1.5c.07.1.25.16.11.34a.32.32,0,0,1-.43.11,24.94,24.94,0,0,0-4.8-1.33A28.46,28.46,0,0,0,19,5.31,26.48,26.48,0,0,0,11.62,7a.31.31,0,0,1-.4-.08C11.08,6.72,11.2,6.64,11.28,6.54Zm-2.43.53A1.88,1.88,0,1,1,7,8.94,1.86,1.86,0,0,1,8.85,7.07Zm-2,24.25c-.14.12-.21,0-.31,0a13.57,13.57,0,0,1-4.89-7,11.33,11.33,0,0,1,1.8-9.71,15.29,15.29,0,0,1,2.9-3.11l.28-.22c.12.18.4.18.27.52a24.6,24.6,0,0,0-1.31,4.77,28.61,28.61,0,0,0-.31,7.1A26.49,26.49,0,0,0,7,30.92.31.31,0,0,1,6.88,31.32ZM9,35.56a1.88,1.88,0,1,1,1.87-1.9A1.85,1.85,0,0,1,9,35.56Zm22.23.53a13.4,13.4,0,0,1-7.88,5,11.2,11.2,0,0,1-2,.19,12.18,12.18,0,0,1-8-3.13,15,15,0,0,1-2-2c-.09-.11-.24-.2-.07-.38s.2-.2.41-.12a25.67,25.67,0,0,0,6.57,1.55A27.74,27.74,0,0,0,25.57,37a25.18,25.18,0,0,0,5.26-1.39c.22-.08.28,0,.4.14S31.27,36,31.18,36.09Zm-.69-2c0,.27-.07.35-.3.44A26.38,26.38,0,0,1,19.33,36a26.18,26.18,0,0,1-6.94-1.46c-.29-.1-.36-.23-.33-.53a3.09,3.09,0,0,0-3.44-3.43A.49.49,0,0,1,8,30.18,26.78,26.78,0,0,1,8,12.45c.12-.35.28-.42.62-.39A3.08,3.08,0,0,0,12,8.68.55.55,0,0,1,12.42,8,26.43,26.43,0,0,1,23.26,6.56a25.09,25.09,0,0,1,7,1.5c.28.09.35.21.31.49a3.11,3.11,0,0,0,3.49,3.5c.32,0,.39.12.48.36a26.09,26.09,0,0,1,1.52,8.84,25.75,25.75,0,0,1-1.57,9c-.09.26-.17.38-.48.34A3.11,3.11,0,0,0,30.49,34.08Zm3.09,1.48a1.88,1.88,0,1,1,1.89-1.88A1.85,1.85,0,0,1,33.58,35.56Zm3.92-5.65A13.27,13.27,0,0,1,36,31.24c-.1.07-.17.24-.34.09a.32.32,0,0,1-.09-.43A24.52,24.52,0,0,0,36.75,27a28.65,28.65,0,0,0,.48-8,26.48,26.48,0,0,0-1.62-7.24c-.08-.22,0-.28.14-.4s.24,0,.34,0a13.45,13.45,0,0,1,5,7.88c0,.23.08.46.11.69,0,.44.06.88.08,1.21A12.45,12.45,0,0,1,37.5,29.91Z"/><path class="cls-1" d="M34.2,18.54a13.23,13.23,0,0,0-20.93-7.78.72.72,0,0,0-.3,1c.45.37.63.37,1.13,0A11.91,11.91,0,0,1,28,11.39a11.07,11.07,0,0,1,3.59,3.89l.11.27A12.51,12.51,0,0,1,33,22.43,11.88,11.88,0,0,1,30,29.27c-.07.08-.12.19-.31.14,0-1,0-2.05-.1-3.08a4,4,0,0,0-4-3.49c-.56,0-1.11,0-1.66,0-.29,0-.36-.08-.34-.35,0-.44,0-.89,0-1.33a.61.61,0,0,1,.25-.55,3.8,3.8,0,0,0,1.41-2.93c0-1.17,0-2.35,0-3.52A3.11,3.11,0,0,0,23,11.22a8,8,0,0,0-2.72-.12,3.11,3.11,0,0,0-3,3.24v3.19a3.29,3.29,0,0,0,.95,2.57A2.33,2.33,0,0,1,19,22.26a1,1,0,0,0,0,.25c.05.28-.1.34-.35.33-.62,0-1.25,0-1.87,0a3.92,3.92,0,0,0-3.69,3,16.08,16.08,0,0,0-.11,3.1c0,.26,0,.51,0,.79-.09,0-.12,0-.14-.06a11.81,11.81,0,0,1-3.36-10.1,11.58,11.58,0,0,1,2.41-5.68c.32-.41.29-.58-.06-1a.74.74,0,0,0-1,.32A12.94,12.94,0,0,0,8.35,24,13.21,13.21,0,1,0,34.2,18.54ZM18.53,14.85c0-.27,0-.55,0-.82a1.94,1.94,0,0,1,2.06-1.71h.75a4.05,4.05,0,0,1,1.27.1A1.92,1.92,0,0,1,24,14.21a1.47,1.47,0,0,1,0,.21c0,.9-.09,1-.87.48a1.58,1.58,0,0,0-1.47-.14,11.24,11.24,0,0,1-2.76.47C18.6,15.24,18.51,15.14,18.53,14.85Zm0,2.82c0-.36-.12-.81.05-1.05s.66-.13,1-.17A13.84,13.84,0,0,0,22,16a.68.68,0,0,1,.59.06,2.64,2.64,0,0,0,1.05.37c.34,0,.44.19.39.5a1.82,1.82,0,0,0,0,.33,2.82,2.82,0,0,1-1.89,2.94A2.74,2.74,0,0,1,18.54,17.67Zm2.71,5.16H21c-.75,0-.75,0-.75-.73s0-.64.63-.57a3.39,3.39,0,0,0,1.23-.06c.22,0,.25,0,.26.21C22.4,22.83,22.4,22.83,21.25,22.83Zm7.1,7.84a.33.33,0,0,1-.13.32,10.4,10.4,0,0,1-2,1.12V30.48c0-.63,0-1.27,0-1.9,0-.45-.26-.73-.62-.73a.65.65,0,0,0-.62.73c0,.86,0,1.72,0,2.57,0,.21,0,.42,0,.62,0,.89,0,.9-.84,1.1a12.07,12.07,0,0,1-6.2-.11c-.37-.1-.51-.26-.42-.62,0-1.16,0-2.32,0-3.48,0-.51-.23-.81-.62-.81s-.62.3-.62.82v3.44a10.73,10.73,0,0,1-2-1.14c-.13-.09-.11-.22-.11-.34,0-1.29,0-2.57,0-3.86a2.65,2.65,0,0,1,2.72-2.68c2.89,0,5.78,0,8.67,0l.33,0h0a2.62,2.62,0,0,1,2.41,2.45C28.37,27.93,28.34,29.3,28.35,30.67Z"/></svg>