<svg id="Layer_1" data-name="Layer 1" xmlns="http://www.w3.org/2000/svg" viewBox="0 0 47.74 44.86"><defs><style>.cls-1{fill:#fff;}</style></defs><path class="cls-1" d="M47.74,32.23a.92.92,0,0,1-.93.47q-2.75,0-5.49,0a2.75,2.75,0,0,1-2.19-1,16.2,16.2,0,0,0-1.29-1.33c-.37-.36-.45-.72-.17-1.06a.68.68,0,0,1,1-.06,14.53,14.53,0,0,1,1.41,1.42,1.7,1.7,0,0,0,1.39.68c1.77,0,3.54,0,5.31,0a1,1,0,0,1,.93.48Z"/><path class="cls-1" d="M47.74,44.45a1.2,1.2,0,0,1-1,.41c-2,0-4.06,0-6.1,0H40.3a.66.66,0,0,1-.67-.68.68.68,0,0,1,.65-.72c.28,0,.56,0,.84,0h5.63a1,1,0,0,1,1,.46Z"/><path class="cls-1" d="M23.85,5.11c.46-.61.86-1.23,1.35-1.76A9.59,9.59,0,0,1,35.5.47a9.44,9.44,0,0,1,7,7.84,9.63,9.63,0,0,1-2.85,8.86Q32.84,24,26,30.82a2.44,2.44,0,0,1-.45.32l.1.14a23.73,23.73,0,0,0,2.53,0,1.72,1.72,0,0,0,1-.67A6.87,6.87,0,0,1,35,27.86h.19a.75.75,0,0,1,.74.75.72.72,0,0,1-.8.67,5.49,5.49,0,0,0-5,2.38,2.49,2.49,0,0,1-2.1,1H21.49a2,2,0,0,0-1.83,1,1.83,1.83,0,0,0,1.48,2.77c.85,0,1.7,0,2.56,0h5.64a1.12,1.12,0,0,1,.59.07,1.27,1.27,0,0,1,.46.62.56.56,0,0,1-.43.68,2.32,2.32,0,0,1-.64.06H13.46a1.48,1.48,0,0,1-1.18-.49Q8.54,33.59,4.79,29.8a1.92,1.92,0,0,0-2.58-.3A1.9,1.9,0,0,0,2,32.43L7.2,37.89c1,1.08,2.07,2.15,3.09,3.24a7,7,0,0,0,5.35,2.31c7,0,14,0,21,0a2,2,0,0,1,.6.06.69.69,0,0,1-.12,1.34,3.7,3.7,0,0,1-.47,0H15.6a8.25,8.25,0,0,1-6.2-2.62Q5.19,37.83,1,33.43a3.32,3.32,0,0,1,1.59-5.61,3.25,3.25,0,0,1,3.22,1C7.89,31,10,33,12.06,35.22a3.3,3.3,0,0,0,3,1.26c1.12-.11,2.26,0,3.45,0a3.32,3.32,0,0,1,.1-3.78,3.6,3.6,0,0,1,3.55-1.36l-.45-.49-9-9.06a2,2,0,0,1-.31-.35.65.65,0,0,1,.1-.85.66.66,0,0,1,.85-.11,2.43,2.43,0,0,1,.38.34q4.87,4.89,9.73,9.79a4.83,4.83,0,0,1,.35.44c.19-.19.33-.31.45-.44q7.14-7.17,14.27-14.34a8.64,8.64,0,0,0,2.68-6.48A8.59,8.59,0,0,0,24.62,7c-.15.36-.33.65-.76.64s-.58-.29-.72-.63A8.58,8.58,0,0,0,6.6,9a8.47,8.47,0,0,0,2.52,7.12l2,2a.72.72,0,0,1,.16,1,.64.64,0,0,1-1,.17c-1.5-1.51-3.15-2.87-4.12-4.83A10,10,0,0,1,13.63.16a9.67,9.67,0,0,1,10,4.58C23.69,4.85,23.76,5,23.85,5.11Z"/><path class="cls-1" d="M26.6,19.67v2c0,.51,0,1,0,1.54a.65.65,0,0,1-.7.7c-1.34,0-2.67,0-4,0a.65.65,0,0,1-.71-.73c0-1,0-2,0-3v-.56H17.65a.68.68,0,0,1-.77-.77q0-1.94,0-3.87c0-.54.24-.78.8-.79,1,0,2,0,2.94,0h.54V11c0-.91.16-1.07,1.09-1.07H25.7c.67,0,.89.23.89.9,0,1.1,0,2.2,0,3.36l.52,0c1,0,1.92,0,2.89,0,.64,0,.87.23.88.86,0,1.25,0,2.49,0,3.73,0,.61-.23.84-.84.84H27.1Zm-4-8.32c0,1.18,0,2.31,0,3.44,0,.56-.26.82-.83.83-.38,0-.77,0-1.16,0H18.31v2.63c1.18,0,2.32,0,3.47,0a.69.69,0,0,1,.78.77c0,.17,0,.34,0,.52v3h2.63V19.36c0-.94.16-1.11,1.1-1.11h3.16V15.62H26.73c-1.51,0-1.54,0-1.54-1.52V11.35Z"/></svg>