<svg id="Capa_1" data-name="Capa 1" xmlns="http://www.w3.org/2000/svg" viewBox="0 0 55.49 42.52"><defs><style>.cls-1{fill:#fff;}</style></defs><path class="cls-1" d="M20.51,21.42c.73-.9,1.43-1.76,2.12-2.64a2.88,2.88,0,0,1,2.48-1.21c.5,0,1,0,1.5,0a.8.8,0,0,0,.86-.49c.83-1.56,1.7-3.09,2.56-4.63a4.57,4.57,0,0,0-7.38,1.35.63.63,0,0,0,.2.52c.56.57,1.16,1.1,1.82,1.72l-1.58,1.11-.32-.35a5.62,5.62,0,0,0-4.3-2h-.75c-.7,0-1-.29-1.06-1a2.77,2.77,0,0,0-2.27-2.62A1.88,1.88,0,0,0,12,12.85c-.09.76-.29,1-1,1a2.81,2.81,0,0,0-2.67,2.87v.52c0,.91-.2,1.13-1.12,1.24-1.79.2-2.79,1.64-2.52,3.67H12V24a3.16,3.16,0,0,1-.32,0H3.87C3.14,24,2.8,23.71,2.81,23a14.51,14.51,0,0,1,.06-2.47,4.57,4.57,0,0,1,3.61-3.8,4.28,4.28,0,0,1,1.36-3.3,14.19,14.19,0,0,1,2.1-1.25c.15-.09.35-.19.4-.33,1-2.87,4.41-3.37,6.63-1.4a4.78,4.78,0,0,1,1.45,2.44l2.36.36a6.54,6.54,0,0,1,10.07-2.6,11.12,11.12,0,0,1,1.76-1.16,3.13,3.13,0,0,1,4,1.68c1.39,2.74,2.76,5.5,4.13,8.24.7,1.4,1.4,2.78,2.08,4.18a.65.65,0,0,0,.74.47c.47,0,1,0,1.44,0a2.84,2.84,0,0,1,2.63,1.46c2.28,3.56,4.54,7.14,6.88,10.66a4.66,4.66,0,0,1,.91,3.17c-.07.72,0,1.46,0,2.19a.91.91,0,0,1-1,1h-53C.24,42.52.1,42.31,0,41.13a4.47,4.47,0,0,1,1-3.08c2.27-3.18,4.48-6.39,6.67-9.62a3.11,3.11,0,0,1,3.08-1.61A1.13,1.13,0,0,0,12,26.16c1-1.76,2.14-3.47,3.22-5.2,1.25-2,3.36-2.09,4.78-.25ZM41,24a5.5,5.5,0,0,0-.22-.51c-1.89-3.8-3.8-7.59-5.69-11.4a1.5,1.5,0,0,0-1.34-1,1.53,1.53,0,0,0-1.37,1c-.91,1.67-1.84,3.33-2.76,5a5.27,5.27,0,0,0-.23.51h2v1.82h-.66c-1.83,0-3.66,0-5.49,0a1.38,1.38,0,0,0-.94.3c-.91,1-1.75,2.13-2.62,3.22.15.21.26.38.39.55q5.42,7.11,10.84,14.23c.65.86,1.6,1.61,1.28,2.9H53.62c0-.77,0-1.5,0-2.23a1,1,0,0,0-.17-.47L46.09,26.48a1.18,1.18,0,0,0-1.1-.59H38.87V24ZM32.45,40.65a3.24,3.24,0,0,0-.29-.82q-6.85-9-13.74-18c-.54-.7-1.13-.68-1.6.07L14,26.45a3.17,3.17,0,0,0-.17.39h2.84v1.82c-2,0-4,0-6,0a1.45,1.45,0,0,0-1.35.69c-2.38,3.45-4.77,6.89-7.15,10.35a4.39,4.39,0,0,0-.36,1Z"/><path class="cls-1" d="M39.77,14.8V13H53.52A2.9,2.9,0,0,0,51,9.26c-.79-.07-1-.34-1-1.12a8,8,0,0,0,0-1,2.81,2.81,0,0,0-2.65-2.52c-.72-.06-1-.28-1-1A1.88,1.88,0,0,0,43.81,2a2.75,2.75,0,0,0-2.2,2.56c-.08.79-.35,1.08-1.13,1a5.84,5.84,0,0,0-5.27,2.38L33.68,6.89a7.48,7.48,0,0,1,6.15-3.2,4.89,4.89,0,0,1,1.53-2.55c1.91-1.67,4.81-1.5,6,.49a4.11,4.11,0,0,0,2,1.75c1.52.7,2.24,2,2.47,4.11a4.36,4.36,0,0,1,3.42,3.21,14,14,0,0,1,.19,3.37c0,.55-.51.74-1.06.74H39.77Z"/><path class="cls-1" d="M30.87,8.4l-1.71-.71,1.06-2.56,1.72.7Z"/><path class="cls-1" d="M22.79,8.4,21.72,5.84l1.72-.72,1.07,2.57Z"/><path class="cls-1" d="M18.43,8.49l1.16-1.18,1.93,1.94-1.2,1.12Z"/><path class="cls-1" d="M25.92,7.37V4.68H27.7V7.37Z"/></svg>